<svg version="1.0" xmlns="http://www.w3.org/2000/svg" width="137.69613647460938" height="61.41436767578125" preserveAspectRatio="xMidYMid meet" style=""><rect id="backgroundrect" width="100%" height="100%" x="0" y="0" fill="none" stroke="none" style="" class=""/>


<g class="currentLayer" style=""><title>Layer 1</title><g transform="translate(0, 300) scale(0.1, -0.1)" fill="#b8b804" stroke="none" id="svg_1" class="" fill-opacity="1">
<path d="M662.5850178881224,2973.5854413778716 c-4.9335574667233075,-6.3931632535408145 -17.04319852140779,-14.78419002381313 -27.807323903349552,-18.77991705727614 c-22.425261212378672,-8.391026770272317 -23.322271660873817,-13.585471913774228 -8.073094036456322,-33.96367978443557 c6.2790731394660275,-7.991454066926017 11.212630606189336,-11.987181100389025 11.212630606189336,-8.790599473618618 c0,3.596154330116707 -4.036547018228161,10.788462990350123 -9.41860970919904,16.782053540544634 c-7.624588812208748,8.391026770272317 -8.521599260703894,11.587608397042725 -4.036547018228161,16.382480837198333 c7.176083587961174,7.591881363579716 22.425261212378672,7.591881363579716 22.425261212378672,0 c0,-3.1965816267704072 2.242526121237867,-5.993590550194512 4.485052242475735,-5.993590550194512 c2.6910313454854404,0 4.485052242475735,3.596154330116707 4.485052242475735,8.391026770272317 c0,10.388890287003822 8.073094036456322,23.574789497431752 14.352167175922348,23.574789497431752 c7.176083587961174,0 16.594693297160216,-12.786326507081627 17.04319852140779,-22.775644090739146 c0,-5.194445143501911 2.242526121237867,-9.19017217696492 4.485052242475735,-9.19017217696492 c2.6910313454854404,0 4.485052242475735,1.5982908133852036 4.485052242475735,3.596154330116707 c0,5.194445143501911 13.455156727427202,8.790599473618618 22.873766436626244,6.3931632535408145 c11.661135830436908,-3.1965816267704072 10.764125381941762,-11.188035693696422 -1.3455156727427204,-15.982908133852034 c-19.73422986689323,-7.591881363579716 -13.903661951674776,-41.95513385136159 7.176083587961174,-41.95513385136159 c13.455156727427202,0 21.976755988131096,9.19017217696492 18.38871419415051,19.97863516731504 c-2.242526121237867,6.3931632535408145 -0.8970104484951469,7.991454066926017 6.2790731394660275,7.991454066926017 c4.9335574667233075,0 11.212630606189336,-3.1965816267704072 13.455156727427202,-6.792735956887114 c4.9335574667233075,-7.591881363579716 6.727578363713601,-1.5982908133852036 2.242526121237867,7.991454066926017 c-1.7940208969902938,4.395299736809309 -5.830567915218454,5.194445143501911 -14.352167175922348,3.1965816267704072 c-9.41860970919904,-2.3974362200778048 -12.109641054684483,-5.594017846848211 -12.109641054684483,-14.78419002381313 c0,-9.589744880311219 -1.7940208969902938,-11.587608397042725 -11.212630606189336,-11.587608397042725 c-15.697682848665071,0 -17.940208969902937,19.179489760622438 -4.036547018228161,32.365388971050365 c13.00665150317963,11.987181100389025 7.624588812208748,21.976498684046547 -12.558146278932055,25.972225717509556 c-7.624588812208748,1.1987181100389026 -19.73422986689323,8.391026770272317 -26.910313454854403,15.583335430505732 l-13.455156727427202,13.585471913774228 l-8.073094036456322,-11.188035693696422 z" id="svg_2" fill="#b8b804" fill-opacity="1"/>
<path d="M759.0136411013509,2936.824752670012 c0,-5.594017846848211 0.8970104484951469,-5.594017846848211 7.176083587961174,-1.1987181100389026 c13.903661951674776,10.388890287003822 30.049850024587418,-18.38034435392984 21.528250763883523,-37.95940681789858 c-1.3455156727427204,-3.596154330116707 -4.485052242475735,-5.194445143501911 -6.727578363713601,-3.995727033463009 c-2.242526121237867,1.1987181100389026 -2.6910313454854404,-1.1987181100389026 -0.8970104484951469,-4.7948724401556095 c1.7940208969902938,-4.395299736809309 0.8970104484951469,-5.993590550194512 -1.7940208969902938,-4.395299736809309 c-2.6910313454854404,1.5982908133852036 -8.521599260703894,-1.1987181100389026 -13.00665150317963,-5.993590550194512 c-5.382062690970881,-5.594017846848211 -6.2790731394660275,-7.591881363579716 -1.7940208969902938,-5.194445143501911 c3.588041793980587,1.5982908133852036 5.382062690970881,1.5982908133852036 3.1395365697330138,0 c-6.2790731394660275,-6.3931632535408145 -17.491703745655364,-5.993590550194512 -14.800672400169923,0.3995727033463009 c2.242526121237867,4.7948724401556095 0.8970104484951469,4.7948724401556095 -7.624588812208748,1.1987181100389026 c-8.970104484951468,-4.395299736809309 -9.41860970919904,-4.395299736809309 -3.588041793980587,1.5982908133852036 c5.382062690970881,5.993590550194512 4.9335574667233075,6.3931632535408145 -6.727578363713601,4.395299736809309 c-17.04319852140779,-2.7970089234241056 -37.67443883679616,4.395299736809309 -38.12294406104374,13.185899210427928 c0,4.7948724401556095 -0.8970104484951469,5.194445143501911 -2.6910313454854404,1.9978635167315042 c-4.485052242475735,-9.98931758365752 -23.77077688512139,-13.585471913774228 -35.4319127155583,-6.792735956887114 c-6.2790731394660275,3.596154330116707 -10.764125381941762,4.395299736809309 -10.764125381941762,1.9978635167315042 c0,-2.3974362200778048 -8.521599260703894,-7.991454066926017 -18.83721941839808,-12.386753803735328 c-10.764125381941762,-4.395299736809309 -15.249177624417497,-6.792735956887114 -10.31562015769419,-5.194445143501911 c15.697682848665071,3.995727033463009 72.20934110385932,6.792735956887114 88.35552917677197,3.995727033463009 c8.521599260703894,-1.1987181100389026 19.285724642645658,-5.194445143501911 24.219282109368965,-8.391026770272317 c8.073094036456322,-5.594017846848211 7.624588812208748,-5.594017846848211 -4.036547018228161,-1.9978635167315042 c-7.176083587961174,1.9978635167315042 -17.940208969902937,3.995727033463009 -24.667787333616538,3.596154330116707 c-11.212630606189336,-0.3995727033463009 -11.212630606189336,-0.799145406692602 2.242526121237867,-3.596154330116707 c29.152839576092273,-5.993590550194512 36.32892316405345,-13.185899210427928 39.46845973378646,-41.555561148015286 c3.588041793980587,-29.967952750972565 0.44850522424757366,-45.95086088482459 -12.109641054684483,-60.33547820529142 c-7.176083587961174,-8.391026770272317 -8.073094036456322,-11.188035693696422 -3.588041793980587,-15.982908133852034 c7.176083587961174,-7.591881363579716 13.903661951674776,-7.591881363579716 10.764125381941762,-0.3995727033463009 c-2.6910313454854404,5.993590550194512 5.830567915218454,12.786326507081627 10.31562015769419,8.790599473618618 c4.485052242475735,-3.995727033463009 -11.212630606189336,-30.367525454318866 -17.491703745655364,-30.367525454318866 c-4.036547018228161,0 -4.036547018228161,-1.1987181100389026 0.8970104484951469,-3.995727033463009 c3.588041793980587,-1.9978635167315042 4.9335574667233075,-5.194445143501911 2.6910313454854404,-6.792735956887114 c-1.7940208969902938,-1.5982908133852036 -9.41860970919904,2.7970089234241056 -16.146188072912643,9.98931758365752 c-6.727578363713601,7.591881363579716 -13.00665150317963,11.587608397042725 -13.903661951674776,9.589744880311219 c-0.8970104484951469,-1.9978635167315042 -6.2790731394660275,2.3974362200778048 -11.661135830436908,9.589744880311219 c-8.970104484951468,12.386753803735328 -9.41860970919904,13.585471913774228 -1.7940208969902938,13.585471913774228 c8.521599260703894,0 22.873766436626244,-11.587608397042725 22.873766436626244,-18.77991705727614 c0,-7.591881363579716 11.212630606189336,-13.185899210427928 17.940208969902937,-9.19017217696492 c5.830567915218454,3.1965816267704072 5.382062690970881,3.995727033463009 -0.8970104484951469,3.995727033463009 c-4.036547018228161,0 -8.073094036456322,3.596154330116707 -8.970104484951468,8.790599473618618 c-0.8970104484951469,5.594017846848211 -8.073094036456322,12.386753803735328 -18.83721941839808,17.581198947237237 c-17.491703745655364,8.790599473618618 -17.491703745655364,8.790599473618618 -5.382062690970881,10.388890287003822 l12.109641054684483,1.1987181100389026 l-11.212630606189336,13.585471913774228 c-18.38871419415051,22.376071387392845 -13.455156727427202,40.75641574132269 10.31562015769419,39.95727033463008 c10.31562015769419,-0.799145406692602 10.31562015769419,-0.799145406692602 1.7940208969902938,-2.3974362200778048 c-5.382062690970881,-0.799145406692602 -12.109641054684483,-4.395299736809309 -15.249177624417497,-7.591881363579716 c-4.485052242475735,-4.7948724401556095 -4.036547018228161,-7.192308660233414 2.242526121237867,-12.786326507081627 c7.176083587961174,-6.3931632535408145 7.624588812208748,-5.993590550194512 4.485052242475735,5.194445143501911 c-2.242526121237867,9.589744880311219 -1.7940208969902938,11.188035693696422 2.6910313454854404,7.192308660233414 c3.1395365697330138,-2.3974362200778048 8.521599260703894,-3.596154330116707 12.558146278932055,-2.3974362200778048 c4.485052242475735,1.5982908133852036 5.830567915218454,0.799145406692602 3.588041793980587,-1.9978635167315042 c-4.9335574667233075,-7.192308660233414 4.485052242475735,-5.594017846848211 13.00665150317963,1.9978635167315042 c7.176083587961174,5.993590550194512 6.727578363713601,7.192308660233414 -7.176083587961174,13.585471913774228 l-15.249177624417497,7.192308660233414 l13.455156727427202,0.3995727033463009 c13.00665150317963,0.3995727033463009 13.00665150317963,0.799145406692602 3.1395365697330138,4.7948724401556095 c-7.176083587961174,3.1965816267704072 -13.00665150317963,3.1965816267704072 -21.528250763883523,0 c-6.2790731394660275,-2.7970089234241056 -13.00665150317963,-4.7948724401556095 -15.249177624417497,-4.7948724401556095 c-5.382062690970881,0 -5.830567915218454,14.384617320466829 -0.8970104484951469,17.181626243890936 c1.7940208969902938,0.799145406692602 0,0.3995727033463009 -3.588041793980587,-0.3995727033463009 c-8.521599260703894,-2.7970089234241056 -22.873766436626244,-2.7970089234241056 -31.39536569733014,0 c-3.588041793980587,0.799145406692602 -5.382062690970881,1.1987181100389026 -3.1395365697330138,0.3995727033463009 c1.7940208969902938,-1.1987181100389026 3.1395365697330138,-5.194445143501911 3.1395365697330138,-9.19017217696492 c0,-5.993590550194512 -2.6910313454854404,-6.792735956887114 -17.491703745655364,-5.194445143501911 c-10.764125381941762,1.1987181100389026 -18.38871419415051,0.3995727033463009 -20.63124031538838,-2.7970089234241056 c-2.242526121237867,-3.596154330116707 -0.8970104484951469,-3.995727033463009 6.2790731394660275,-1.9978635167315042 c4.9335574667233075,1.1987181100389026 12.558146278932055,0.799145406692602 16.594693297160216,-1.1987181100389026 c6.727578363713601,-3.1965816267704072 6.727578363713601,-3.995727033463009 -0.44850522424757366,-6.3931632535408145 c-4.036547018228161,-1.1987181100389026 -9.41860970919904,-1.1987181100389026 -12.109641054684483,0 c-2.242526121237867,1.1987181100389026 -8.073094036456322,-0.799145406692602 -13.00665150317963,-4.7948724401556095 c-11.212630606189336,-9.19017217696492 -18.83721941839808,-3.1965816267704072 -16.594693297160216,14.384617320466829 c1.7940208969902938,17.581198947237237 16.594693297160216,26.771371124202155 55.16614258245153,33.96367978443557 l31.39536569733014,5.594017846848211 l-29.152839576092273,-1.9978635167315042 c-16.146188072912643,-1.5982908133852036 -36.32892316405345,-5.194445143501911 -44.40201720050977,-7.991454066926017 c-15.697682848665071,-5.993590550194512 -30.049850024587418,-4.7948724401556095 -25.564797782111686,1.9978635167315042 c1.3455156727427204,1.9978635167315042 -3.1395365697330138,5.594017846848211 -10.31562015769419,7.591881363579716 c-16.594693297160216,5.194445143501911 -21.528250763883523,22.376071387392845 -12.109641054684483,42.35470655470789 c7.624588812208748,16.782053540544634 20.63124031538838,19.57906246396874 20.63124031538838,4.395299736809309 c0,-6.792735956887114 1.7940208969902938,-9.19017217696492 6.2790731394660275,-7.591881363579716 c4.9335574667233075,1.5982908133852036 5.382062690970881,4.395299736809309 1.3455156727427204,13.985044617120531 c-6.2790731394660275,14.78419002381313 -13.00665150317963,14.78419002381313 -27.35881867910198,-0.799145406692602 c-8.970104484951468,-9.19017217696492 -11.661135830436908,-16.782053540544634 -11.661135830436908,-30.367525454318866 c0,-16.382480837198333 1.7940208969902938,-19.97863516731504 18.83721941839808,-33.96367978443557 c17.491703745655364,-14.384617320466829 18.38871419415051,-15.583335430505732 11.212630606189336,-21.976498684046547 c-7.176083587961174,-6.792735956887114 -8.521599260703894,-6.3931632535408145 -19.285724642645658,3.995727033463009 c-8.073094036456322,7.591881363579716 -15.697682848665071,10.788462990350123 -26.46180823060683,10.788462990350123 c-15.249177624417497,0 -20.63124031538838,-4.7948724401556095 -11.212630606189336,-9.98931758365752 c2.6910313454854404,-1.1987181100389026 4.485052242475735,-5.194445143501911 4.485052242475735,-8.391026770272317 c0,-3.995727033463009 -5.382062690970881,-5.594017846848211 -17.491703745655364,-5.594017846848211 c-21.528250763883523,0 -25.564797782111686,-4.395299736809309 -13.903661951674776,-13.985044617120531 c4.9335574667233075,-3.995727033463009 8.970104484951468,-8.790599473618618 8.970104484951468,-10.788462990350123 c0,-4.7948724401556095 -15.697682848665071,-3.995727033463009 -29.152839576092273,1.5982908133852036 c-11.661135830436908,4.7948724401556095 -14.352167175922348,9.19017217696492 -6.727578363713601,13.185899210427928 c5.830567915218454,3.1965816267704072 5.830567915218454,28.36966193758736 0,37.95940681789858 c-13.455156727427202,22.775644090739146 -46.644543321747626,15.583335430505732 -43.95351197626219,-9.19017217696492 c0.8970104484951469,-9.19017217696492 4.036547018228161,-13.185899210427928 10.31562015769419,-14.384617320466829 c4.9335574667233075,-0.799145406692602 10.31562015769419,-3.1965816267704072 12.109641054684483,-5.594017846848211 c1.7940208969902938,-2.3974362200778048 4.485052242475735,0.3995727033463009 5.830567915218454,6.3931632535408145 c3.588041793980587,11.587608397042725 -4.485052242475735,24.373934904124347 -12.109641054684483,20.378207870661345 c-2.6910313454854404,-1.5982908133852036 -2.242526121237867,-3.995727033463009 1.3455156727427204,-5.993590550194512 c4.9335574667233075,-2.3974362200778048 4.9335574667233075,-4.395299736809309 0.8970104484951469,-7.991454066926017 c-6.2790731394660275,-5.594017846848211 -14.800672400169923,-1.1987181100389026 -14.800672400169923,7.991454066926017 c0,8.790599473618618 8.521599260703894,16.382480837198333 18.38871419415051,16.382480837198333 c19.285724642645658,0 26.01330300635926,-30.367525454318866 9.41860970919904,-44.75214277478569 l-9.41860970919904,-8.790599473618618 l13.00665150317963,-7.192308660233414 c13.00665150317963,-6.792735956887114 17.940208969902937,-15.183762727159433 8.970104484951468,-15.183762727159433 c-2.242526121237867,0 -14.800672400169923,3.596154330116707 -27.807323903349552,7.991454066926017 c-29.152839576092273,9.98931758365752 -29.152839576092273,9.98931758365752 -19.285724642645658,0 c13.903661951674776,-13.585471913774228 2.242526121237867,-17.980771650583538 -16.146188072912643,-5.993590550194512 c-21.976755988131096,14.384617320466829 -44.40201720050977,22.775644090739146 -54.26913213395638,20.777780574007643 c-9.867114933446615,-2.3974362200778048 -16.146188072912643,4.7948724401556095 -7.624588812208748,9.589744880311219 c8.073094036456322,4.395299736809309 37.225933612548594,4.395299736809309 60.099700049174835,-0.3995727033463009 c9.867114933446615,-1.9978635167315042 22.873766436626244,-2.3974362200778048 29.152839576092273,-0.799145406692602 c8.970104484951468,1.9978635167315042 6.2790731394660275,3.1965816267704072 -13.455156727427202,5.194445143501911 c-50.23258511572822,5.594017846848211 -74.00336200084962,3.995727033463009 -87.01001350402925,-4.7948724401556095 c-9.41860970919904,-6.3931632535408145 -11.661135830436908,-10.788462990350123 -9.867114933446615,-17.980771650583538 c3.1395365697330138,-11.188035693696422 -7.624588812208748,-17.581198947237237 -30.049850024587418,-17.581198947237237 c-16.594693297160216,0 -21.976755988131096,5.594017846848211 -17.940208969902937,19.57906246396874 c1.3455156727427204,5.594017846848211 0.44850522424757366,8.391026770272317 -4.036547018228161,8.391026770272317 c-3.588041793980587,0 -6.727578363713601,-4.7948724401556095 -7.176083587961174,-11.987181100389025 c-1.7940208969902938,-22.775644090739146 31.39536569733014,-30.367525454318866 60.99671049766999,-13.185899210427928 c7.176083587961174,3.995727033463009 16.594693297160216,5.194445143501911 29.152839576092273,3.596154330116707 c10.31562015769419,-1.1987181100389026 15.249177624417497,-1.1987181100389026 11.212630606189336,0.799145406692602 c-7.624588812208748,2.7970089234241056 -7.624588812208748,3.1965816267704072 0.44850522424757366,7.591881363579716 c7.176083587961174,3.995727033463009 12.109641054684483,2.7970089234241056 30.049850024587418,-9.19017217696492 c22.425261212378672,-13.985044617120531 34.98340749131073,-16.782053540544634 40.365470182281605,-9.19017217696492 c1.7940208969902938,2.3974362200778048 4.036547018228161,2.7970089234241056 5.830567915218454,0.799145406692602 c4.485052242475735,-5.594017846848211 40.81397540652918,2.3974362200778048 40.81397540652918,9.19017217696492 c0,14.78419002381313 46.644543321747626,-0.799145406692602 78.03990901907777,-26.37179842085586 c55.614647806699104,-45.95086088482459 59.20268960067969,-128.66241047750887 7.624588812208748,-183.80344353929837 c-16.594693297160216,-17.980771650583538 -11.212630606189336,1.9978635167315042 6.2790731394660275,21.976498684046547 c8.521599260703894,9.98931758365752 17.940208969902937,25.972225717509556 20.63124031538838,35.16239789447447 c12.558146278932055,42.35470655470789 -7.624588812208748,97.49573961649739 -44.40201720050977,120.67095641058285 c-17.04319852140779,10.388890287003822 -24.219282109368965,11.987181100389025 -54.71763735820396,13.185899210427928 c-42.60799630351947,1.9978635167315042 -66.37877318864086,-5.993590550194512 -70.41532020686903,-23.17521679408545 c-2.242526121237867,-10.388890287003822 -4.036547018228161,-11.188035693696422 -31.84387092157771,-13.185899210427928 c-36.77742838830102,-2.3974362200778048 -49.335574667233075,0.799145406692602 -25.11629255786411,7.192308660233414 c18.38871419415051,4.395299736809309 26.01330300635926,15.982908133852034 14.352167175922348,22.376071387392845 c-8.970104484951468,5.194445143501911 -36.32892316405345,4.395299736809309 -65.03325751589814,-2.3974362200778048 c-15.249177624417497,-3.596154330116707 -33.18938659432043,-5.194445143501911 -43.05650152776705,-3.596154330116707 c-26.910313454854403,3.995727033463009 -38.571449285291315,25.972225717509556 -21.976755988131096,43.15385196140049 l7.624588812208748,8.391026770272317 l-10.31562015769419,-7.991454066926017 c-8.073094036456322,-5.993590550194512 -10.31562015769419,-10.788462990350123 -8.970104484951468,-20.777780574007643 c0.8970104484951469,-7.192308660233414 1.3455156727427204,-13.185899210427928 0.8970104484951469,-13.185899210427928 c-0.44850522424757366,0 -12.558146278932055,6.3931632535408145 -26.910313454854403,13.985044617120531 c-30.498355248834994,16.382480837198333 -61.445215721917556,25.572653014163254 -93.73759186774285,27.97008923424106 l-22.425261212378672,1.5982908133852036 l24.219282109368965,-3.596154330116707 c59.651194824927266,-9.98931758365752 130.96352548029142,-48.3482971049024 164.60141729885947,-88.70514014287879 c21.528250763883523,-25.972225717509556 26.910313454854403,-40.35684303797638 7.624588812208748,-21.177353277353944 c-17.940208969902937,18.38034435392984 -34.53490226706315,11.587608397042725 -29.601344800339845,-11.987181100389025 l2.6910313454854404,-11.987181100389025 l-15.249177624417497,14.78419002381313 c-17.04319852140779,15.982908133852034 -33.63789181856801,21.576925980700246 -51.57810078847094,17.581198947237237 c-8.521599260703894,-1.9978635167315042 -10.764125381941762,-4.395299736809309 -8.521599260703894,-9.98931758365752 c2.242526121237867,-6.3931632535408145 -1.3455156727427204,-8.391026770272317 -20.182735091140803,-12.386753803735328 c-15.249177624417497,-3.1965816267704072 -26.01330300635926,-8.790599473618618 -33.63789181856801,-16.782053540544634 c-18.38871419415051,-19.57906246396874 -13.455156727427202,-24.773507607470656 12.558146278932055,-12.786326507081627 c19.285724642645658,9.19017217696492 55.16614258245153,8.391026770272317 79.38542469182049,-1.1987181100389026 c23.77077688512139,-9.589744880311219 39.46845973378646,-22.376071387392845 68.62129930987874,-56.33975117182842 c14.352167175922348,-17.181626243890936 26.910313454854403,-27.170943827548456 38.12294406104374,-31.166670861011465 c8.970104484951468,-3.1965816267704072 21.528250763883523,-8.391026770272317 27.807323903349552,-11.188035693696422 c6.2790731394660275,-2.7970089234241056 13.455156727427202,-4.395299736809309 16.594693297160216,-3.596154330116707 c3.1395365697330138,0.799145406692602 19.73422986689323,-2.7970089234241056 37.225933612548594,-8.391026770272317 c17.491703745655364,-5.594017846848211 39.916964958034036,-10.388890287003822 49.78407989148065,-10.388890287003822 c17.940208969902937,0 17.940208969902937,-0.3995727033463009 15.249177624417497,-11.587608397042725 c-4.036547018228161,-15.982908133852034 4.485052242475735,-29.56838004762626 16.146188072912643,-26.37179842085586 c7.176083587961174,1.9978635167315042 8.521599260703894,0.3995727033463009 8.521599260703894,-8.790599473618618 c0,-17.980771650583538 20.63124031538838,-40.75641574132269 37.225933612548594,-41.155988444668985 c9.41860970919904,0 9.41860970919904,1.1987181100389026 0,17.181626243890936 c-8.073094036456322,13.985044617120531 -9.867114933446615,60.73505090863773 -2.6910313454854404,67.12821416217854 c2.242526121237867,1.9978635167315042 10.764125381941762,-3.596154330116707 20.63124031538838,-14.384617320466829 c15.249177624417497,-15.982908133852034 16.146188072912643,-17.980771650583538 7.624588812208748,-17.980771650583538 c-11.212630606189336,0 -11.212630606189336,-4.395299736809309 -0.8970104484951469,-15.583335430505732 c10.764125381941762,-11.587608397042725 30.498355248834994,-19.57906246396874 43.05650152776705,-17.581198947237237 c18.38871419415051,3.1965816267704072 30.498355248834994,39.15812492793748 20.182735091140803,59.13676009525252 c-3.1395365697330138,5.993590550194512 -3.588041793980587,5.194445143501911 -1.3455156727427204,-4.395299736809309 c2.6910313454854404,-13.585471913774228 -6.2790731394660275,-36.36111600451338 -16.594693297160216,-44.352570071439395 c-3.588041793980587,-2.7970089234241056 -11.212630606189336,-3.596154330116707 -17.04319852140779,-2.3974362200778048 c-6.2790731394660275,1.5982908133852036 -8.073094036456322,3.1965816267704072 -4.9335574667233075,5.194445143501911 c3.1395365697330138,1.5982908133852036 -0.8970104484951469,3.995727033463009 -9.867114933446615,5.594017846848211 c-11.661135830436908,1.9978635167315042 -13.455156727427202,3.596154330116707 -8.073094036456322,6.3931632535408145 c3.588041793980587,1.9978635167315042 10.31562015769419,3.995727033463009 14.352167175922348,3.995727033463009 c9.867114933446615,0 26.01330300635926,18.77991705727614 26.01330300635926,30.367525454318866 c0,12.386753803735328 -11.661135830436908,21.576925980700246 -27.35881867910198,21.576925980700246 c-8.073094036456322,0 -12.558146278932055,1.5982908133852036 -10.764125381941762,3.995727033463009 c4.036547018228161,5.993590550194512 27.807323903349552,4.7948724401556095 43.05650152776705,-1.9978635167315042 c17.04319852140779,-7.991454066926017 38.571449285291315,-34.36325248778187 44.850522424757344,-55.54060576513582 c4.485052242475735,-13.985044617120531 5.830567915218454,-15.183762727159433 8.970104484951468,-8.391026770272317 c1.7940208969902938,4.395299736809309 3.588041793980587,12.386753803735328 3.588041793980587,17.980771650583538 c0.8970104484951469,16.382480837198333 19.73422986689323,41.155988444668985 38.571449285291315,50.7457333249802 c18.38871419415051,9.19017217696492 47.09304854599521,12.386753803735328 47.09304854599521,5.194445143501911 c0,-1.9978635167315042 -4.485052242475735,-3.995727033463009 -10.31562015769419,-3.995727033463009 c-29.152839576092273,0 -40.365470182281605,-27.97008923424106 -17.940208969902937,-43.952997368093094 c9.867114933446615,-6.792735956887114 16.146188072912643,-8.391026770272317 30.498355248834994,-5.993590550194512 l17.940208969902937,2.3974362200778048 l-15.249177624417497,-12.386753803735328 c-10.764125381941762,-8.790599473618618 -18.38871419415051,-11.987181100389025 -26.01330300635926,-10.788462990350123 c-10.764125381941762,1.5982908133852036 -14.352167175922348,-3.1965816267704072 -4.485052242475735,-6.3931632535408145 c3.588041793980587,-1.5982908133852036 2.6910313454854404,-2.3974362200778048 -1.7940208969902938,-2.3974362200778048 c-13.00665150317963,-0.799145406692602 -21.976755988131096,13.185899210427928 -21.976755988131096,33.16453437774297 c0,12.786326507081627 -1.7940208969902938,17.980771650583538 -4.9335574667233075,15.982908133852034 c-3.588041793980587,-1.5982908133852036 -4.036547018228161,-9.98931758365752 -1.7940208969902938,-25.173080310816953 c4.9335574667233075,-35.561970597820775 4.9335574667233075,-50.346160621633906 0,-51.94445143501911 c-4.036547018228161,-1.5982908133852036 -7.624588812208748,2.7970089234241056 -13.903661951674776,17.581198947237237 c-2.6910313454854404,5.993590550194512 -4.036547018228161,2.7970089234241056 -6.2790731394660275,-11.987181100389025 c-1.3455156727427204,-10.788462990350123 -5.382062690970881,-24.373934904124347 -8.521599260703894,-29.56838004762626 c-5.382062690970881,-8.790599473618618 -6.2790731394660275,-8.790599473618618 -13.00665150317963,-2.7970089234241056 c-4.036547018228161,3.596154330116707 -8.521599260703894,15.583335430505732 -9.867114933446615,26.37179842085586 c-2.6910313454854404,22.775644090739146 -9.867114933446615,27.97008923424106 -13.455156727427202,9.98931758365752 c-2.6910313454854404,-14.78419002381313 -7.624588812208748,-15.183762727159433 -15.697682848665071,-1.9978635167315042 c-4.036547018228161,6.3931632535408145 -6.2790731394660275,7.591881363579716 -6.727578363713601,3.596154330116707 c0,-9.98931758365752 11.212630606189336,-21.177353277353944 19.73422986689323,-18.38034435392984 c5.382062690970881,1.9978635167315042 9.41860970919904,-1.1987181100389026 15.249177624417497,-12.386753803735328 c5.830567915218454,-11.188035693696422 10.31562015769419,-14.78419002381313 18.83721941839808,-14.78419002381313 c8.521599260703894,0 11.661135830436908,2.7970089234241056 15.249177624417497,13.185899210427928 c3.1395365697330138,10.388890287003822 6.2790731394660275,12.786326507081627 12.558146278932055,11.587608397042725 c10.764125381941762,-2.7970089234241056 23.322271660873817,13.585471913774228 20.63124031538838,26.37179842085586 c-1.7940208969902938,7.991454066926017 -0.44850522424757366,8.790599473618618 11.661135830436908,7.591881363579716 c10.764125381941762,-1.1987181100389026 18.38871419415051,1.9978635167315042 33.18938659432043,13.185899210427928 c21.976755988131096,17.181626243890936 26.01330300635926,31.566243564357766 6.727578363713601,27.570516530894757 l-11.661135830436908,-2.7970089234241056 l14.800672400169923,16.782053540544634 c8.521599260703894,9.19017217696492 17.04319852140779,15.982908133852034 19.73422986689323,15.183762727159433 c13.00665150317963,-3.995727033463009 19.285724642645658,-56.73932387517472 9.41860970919904,-79.51496796591387 c-2.242526121237867,-5.194445143501911 -0.8970104484951469,-7.192308660233414 4.485052242475735,-7.192308660233414 c8.970104484951468,0 33.63789181856801,22.376071387392845 33.63789181856801,30.367525454318866 c0,2.7970089234241056 4.9335574667233075,9.589744880311219 11.212630606189336,15.183762727159433 c11.661135830436908,10.388890287003822 15.249177624417497,31.566243564357766 6.727578363713601,36.36111600451338 c-9.867114933446615,5.594017846848211 -3.1395365697330138,7.991454066926017 23.77077688512139,8.391026770272317 c31.39536569733014,0 91.04656052225741,15.183762727159433 96.42862321322828,24.373934904124347 c2.242526121237867,3.1965816267704072 11.212630606189336,9.589744880311219 20.182735091140803,14.384617320466829 c8.521599260703894,4.7948724401556095 26.46180823060683,20.378207870661345 39.019954509538884,34.76282519112817 c52.02660601271852,57.93804198521362 73.55485677660204,71.52351389898784 114.81733740737879,71.92308660233415 c17.04319852140779,0 26.910313454854403,-2.3974362200778048 39.46845973378646,-9.98931758365752 c19.73422986689323,-11.987181100389025 20.63124031538838,-11.987181100389025 17.491703745655364,-1.9978635167315042 c-3.1395365697330138,10.388890287003822 -30.946860473082566,31.965816267704067 -40.81397540652918,31.566243564357766 c-6.2790731394660275,0 -6.2790731394660275,-0.799145406692602 -0.8970104484951469,-2.3974362200778048 c10.764125381941762,-3.596154330116707 32.29237614582529,-17.980771650583538 30.049850024587418,-19.97863516731504 c-1.3455156727427204,-0.799145406692602 -8.521599260703894,1.1987181100389026 -16.146188072912643,4.395299736809309 c-33.63789181856801,15.583335430505732 -80.28243514031564,0.799145406692602 -118.40537920135938,-38.358979521244876 c-42.60799630351947,-44.352570071439395 -68.17279408563115,-66.32906875548593 -78.93691946757292,-69.12607767891005 c-6.727578363713601,-1.9978635167315042 -9.41860970919904,-1.1987181100389026 -7.624588812208748,1.1987181100389026 c1.3455156727427204,1.9978635167315042 -0.8970104484951469,6.3931632535408145 -5.382062690970881,9.19017217696492 c-6.727578363713601,5.194445143501911 -7.176083587961174,4.7948724401556095 -1.3455156727427204,-1.1987181100389026 c6.727578363713601,-7.991454066926017 0.8970104484951469,-9.98931758365752 -7.624588812208748,-2.3974362200778048 c-7.176083587961174,6.3931632535408145 -6.727578363713601,26.771371124202155 1.3455156727427204,39.15812492793748 c8.521599260703894,13.185899210427928 8.521599260703894,23.97436220077805 -0.8970104484951469,32.764961674396666 c-5.830567915218454,5.993590550194512 -6.2790731394660275,7.192308660233414 -0.8970104484951469,7.192308660233414 c3.588041793980587,0 9.41860970919904,-2.3974362200778048 12.558146278932055,-4.7948724401556095 c4.485052242475735,-4.395299736809309 6.727578363713601,-3.995727033463009 11.212630606189336,1.9978635167315042 c3.1395365697330138,3.596154330116707 7.176083587961174,6.792735956887114 8.970104484951468,6.792735956887114 c6.2790731394660275,0 2.242526121237867,-39.95727033463008 -4.9335574667233075,-51.5448787316728 c-4.485052242475735,-6.3931632535408145 -6.2790731394660275,-13.185899210427928 -4.485052242475735,-14.78419002381313 c7.624588812208748,-6.792735956887114 13.903661951674776,8.391026770272317 16.594693297160216,41.155988444668985 c3.1395365697330138,33.56410708108927 10.764125381941762,57.13889657852102 18.83721941839808,57.13889657852102 c1.7940208969902938,0 3.588041793980587,-3.995727033463009 3.588041793980587,-8.790599473618618 c0,-5.194445143501911 2.242526121237867,-11.987181100389025 4.485052242475735,-15.183762727159433 c3.588041793980587,-4.7948724401556095 4.485052242475735,-4.395299736809309 4.485052242475735,1.9978635167315042 c0,4.395299736809309 3.1395365697330138,12.386753803735328 7.176083587961174,17.581198947237237 c7.176083587961174,8.790599473618618 7.176083587961174,9.19017217696492 -2.242526121237867,6.3931632535408145 c-16.146188072912643,-4.395299736809309 -11.212630606189336,7.591881363579716 14.352167175922348,35.561970597820775 c26.01330300635926,28.769234640933657 58.305679152184545,53.14316954505801 94.18609709199042,70.72436849229524 c12.558146278932055,6.3931632535408145 21.07974553963595,11.587608397042725 18.38871419415051,11.587608397042725 c-2.6910313454854404,0 -17.491703745655364,-7.192308660233414 -33.63789181856801,-15.583335430505732 l-28.704334351844697,-15.583335430505732 l-3.1395365697330138,9.98931758365752 c-4.485052242475735,14.384617320466829 -16.594693297160216,25.173080310816953 -29.152839576092273,25.173080310816953 c-7.176083587961174,0 -10.31562015769419,-2.3974362200778048 -10.31562015769419,-7.991454066926017 c0,-4.395299736809309 2.242526121237867,-7.991454066926017 4.9335574667233075,-7.991454066926017 c2.6910313454854404,0 4.036547018228161,2.7970089234241056 2.242526121237867,5.993590550194512 c-3.1395365697330138,7.991454066926017 8.073094036456322,7.591881363579716 17.04319852140779,-0.3995727033463009 c10.764125381941762,-9.19017217696492 8.521599260703894,-23.97436220077805 -4.485052242475735,-33.16453437774297 c-15.249177624417497,-10.788462990350123 -43.95351197626219,-10.788462990350123 -81.62795081305836,-0.3995727033463009 c-34.98340749131073,9.589744880311219 -51.57810078847094,5.993590550194512 -49.335574667233075,-11.188035693696422 c0.8970104484951469,-7.591881363579716 5.830567915218454,-12.786326507081627 16.146188072912643,-17.181626243890936 c12.109641054684483,-5.594017846848211 13.00665150317963,-6.792735956887114 5.830567915218454,-8.790599473618618 c-15.697682848665071,-3.596154330116707 -48.43856421873793,7.192308660233414 -66.82727841288843,21.976498684046547 c-20.182735091140803,15.982908133852034 -40.81397540652918,21.576925980700246 -66.82727841288843,17.181626243890936 c-34.98340749131073,-5.594017846848211 -75.34887767359233,-35.16239789447447 -89.2525396252671,-64.33120523875444 c-8.521599260703894,-17.581198947237237 -17.491703745655364,-22.775644090739146 -13.455156727427202,-7.192308660233414 c4.485052242475735,15.183762727159433 21.976755988131096,42.35470655470789 39.46845973378646,59.93590550194513 c17.940208969902937,17.980771650583538 55.614647806699104,37.55983411455228 73.10635155235447,37.55983411455228 c9.41860970919904,0 11.661135830436908,-1.1987181100389026 7.176083587961174,-3.596154330116707 c-3.588041793980587,-1.9978635167315042 -4.485052242475735,-5.594017846848211 -2.6910313454854404,-8.391026770272317 c3.588041793980587,-4.7948724401556095 27.35881867910198,-3.995727033463009 43.95351197626219,1.9978635167315042 c5.382062690970881,1.9978635167315042 7.624588812208748,0.799145406692602 7.624588812208748,-3.596154330116707 c0,-13.185899210427928 13.903661951674776,-11.587608397042725 31.39536569733014,3.596154330116707 c15.249177624417497,13.185899210427928 18.83721941839808,14.384617320466829 31.84387092157771,11.987181100389025 c13.455156727427202,-2.7970089234241056 14.352167175922348,-3.596154330116707 6.2790731394660275,-6.792735956887114 c-6.2790731394660275,-2.3974362200778048 -3.588041793980587,-2.7970089234241056 9.867114933446615,-1.5982908133852036 c10.31562015769419,0.799145406692602 26.910313454854403,-0.799145406692602 37.225933612548594,-3.995727033463009 c17.940208969902937,-5.594017846848211 38.12294406104374,-4.395299736809309 43.05650152776705,2.7970089234241056 c1.3455156727427204,1.9978635167315042 -2.6910313454854404,1.9978635167315042 -8.970104484951468,-0.3995727033463009 c-18.38871419415051,-5.993590550194512 -44.850522424757344,3.1965816267704072 -46.644543321747626,16.382480837198333 c-2.242526121237867,17.980771650583538 -14.800672400169923,24.773507607470656 -42.1594910792719,22.775644090739146 c-13.00665150317963,-1.1987181100389026 -33.18938659432043,-3.995727033463009 -44.40201720050977,-7.192308660233414 c-11.661135830436908,-2.7970089234241056 -24.219282109368965,-3.995727033463009 -29.152839576092273,-2.3974362200778048 c-8.073094036456322,3.1965816267704072 -8.073094036456322,3.596154330116707 1.7940208969902938,7.591881363579716 c10.764125381941762,4.395299736809309 13.455156727427202,21.976498684046547 4.485052242475735,29.967952750972565 c-8.970104484951468,7.991454066926017 -25.11629255786411,5.594017846848211 -33.18938659432043,-5.194445143501911 c-7.624588812208748,-10.388890287003822 -5.382062690970881,-23.17521679408545 6.2790731394660275,-34.76282519112817 c5.830567915218454,-6.3931632535408145 5.382062690970881,-7.192308660233414 -5.382062690970881,-11.188035693696422 c-6.727578363713601,-1.9978635167315042 -17.491703745655364,-3.995727033463009 -23.77077688512139,-3.995727033463009 c-11.212630606189336,0 -11.212630606189336,0.3995727033463009 -4.036547018228161,7.591881363579716 c6.727578363713601,6.3931632535408145 6.727578363713601,7.591881363579716 0.44850522424757366,12.386753803735328 c-4.036547018228161,3.1965816267704072 -12.109641054684483,3.995727033463009 -20.63124031538838,2.3974362200778048 c-12.109641054684483,-1.9978635167315042 -13.455156727427202,-1.1987181100389026 -12.109641054684483,6.792735956887114 c1.7940208969902938,12.786326507081627 -16.594693297160216,14.384617320466829 -30.498355248834994,2.3974362200778048 c-8.521599260703894,-7.192308660233414 -11.661135830436908,-7.991454066926017 -17.491703745655364,-3.596154330116707 c-5.830567915218454,4.395299736809309 -4.9335574667233075,7.192308660233414 9.41860970919904,22.775644090739146 c21.528250763883523,23.574789497431752 26.01330300635926,48.747869808248694 10.764125381941762,63.13248712871553 c-12.109641054684483,11.188035693696422 -26.910313454854403,13.185899210427928 -26.910313454854403,3.596154330116707 zm143.5216717592235,-67.52778686552485 c6.727578363713601,-7.192308660233414 2.6910313454854404,-17.980771650583538 -6.727578363713601,-17.980771650583538 c-8.073094036456322,0 -8.970104484951468,10.388890287003822 -0.8970104484951469,13.585471913774228 c2.6910313454854404,1.1987181100389026 1.3455156727427204,1.9978635167315042 -3.588041793980587,1.1987181100389026 c-13.455156727427202,-1.1987181100389026 -14.352167175922348,-20.378207870661345 -1.3455156727427204,-28.36966193758736 c12.558146278932055,-7.991454066926017 28.255829127597124,-7.991454066926017 52.92361646121366,-0.3995727033463009 c26.01330300635926,8.391026770272317 41.710985855024326,7.591881363579716 52.02660601271852,-2.3974362200778048 l8.521599260703894,-8.391026770272317 l-17.04319852140779,2.7970089234241056 c-17.491703745655364,3.1965816267704072 -35.4319127155583,-3.995727033463009 -47.09304854599521,-18.77991705727614 c-3.1395365697330138,-3.995727033463009 -9.867114933446615,-9.19017217696492 -15.249177624417497,-11.587608397042725 c-8.521599260703894,-3.995727033463009 -8.970104484951468,-3.596154330116707 -5.830567915218454,7.991454066926017 l3.1395365697330138,12.386753803735328 l-23.322271660873817,-7.991454066926017 c-27.35881867910198,-9.589744880311219 -26.910313454854403,-9.589744880311219 -26.910313454854403,-1.5982908133852036 c0,3.596154330116707 6.2790731394660275,8.391026770272317 13.455156727427202,10.788462990350123 c15.697682848665071,5.194445143501911 17.04319852140779,9.19017217696492 4.9335574667233075,12.786326507081627 c-12.109641054684483,3.1965816267704072 -20.63124031538838,23.17521679408545 -13.903661951674776,33.56410708108927 c5.830567915218454,9.589744880311219 18.83721941839808,10.788462990350123 26.910313454854403,2.3974362200778048 zm-98.67114933446615,-23.574789497431752 c0,-5.594017846848211 -1.7940208969902938,-11.188035693696422 -4.485052242475735,-12.386753803735328 c-2.242526121237867,-1.1987181100389026 -4.485052242475735,-3.995727033463009 -4.485052242475735,-6.3931632535408145 c0,-6.3931632535408145 11.661135830436908,-3.995727033463009 20.182735091140803,4.395299736809309 c8.521599260703894,8.391026770272317 22.425261212378672,10.788462990350123 26.910313454854403,4.395299736809309 c2.6910313454854404,-4.395299736809309 -21.528250763883523,-21.976498684046547 -39.019954509538884,-27.97008923424106 c-8.521599260703894,-2.7970089234241056 -15.249177624417497,-2.3974362200778048 -22.873766436626244,0.799145406692602 l-11.212630606189336,4.7948724401556095 l11.661135830436908,4.7948724401556095 l12.109641054684483,5.194445143501911 l-12.109641054684483,-1.5982908133852036 c-6.727578363713601,-0.3995727033463009 -11.212630606189336,0 -10.31562015769419,1.9978635167315042 c1.3455156727427204,1.5982908133852036 0,3.596154330116707 -3.1395365697330138,4.395299736809309 c-2.6910313454854404,0.799145406692602 -5.382062690970881,4.7948724401556095 -6.2790731394660275,8.391026770272317 c-0.8970104484951469,5.194445143501911 0.8970104484951469,5.993590550194512 7.176083587961174,2.7970089234241056 c11.212630606189336,-5.194445143501911 13.455156727427202,-5.194445143501911 13.455156727427202,1.1987181100389026 c0,2.7970089234241056 2.242526121237867,7.192308660233414 5.382062690970881,9.98931758365752 c8.970104484951468,7.991454066926017 17.04319852140779,5.594017846848211 17.04319852140779,-4.7948724401556095 zm-243.98684199067995,-4.7948724401556095 c5.830567915218454,-7.591881363579716 10.31562015769419,-9.589744880311219 17.940208969902937,-7.991454066926017 c8.521599260703894,1.9978635167315042 9.867114933446615,1.1987181100389026 7.624588812208748,-4.395299736809309 c-1.3455156727427204,-3.995727033463009 -4.9335574667233075,-9.589744880311219 -7.624588812208748,-12.786326507081627 c-3.588041793980587,-4.395299736809309 -3.588041793980587,-5.194445143501911 0.44850522424757366,-3.1965816267704072 c3.588041793980587,1.9978635167315042 4.9335574667233075,0 4.485052242475735,-5.194445143501911 c-0.44850522424757366,-4.395299736809309 -4.485052242475735,-9.19017217696492 -8.970104484951468,-10.388890287003822 c-7.176083587961174,-1.9978635167315042 -7.624588812208748,-3.1965816267704072 -2.6910313454854404,-5.993590550194512 c4.485052242475735,-2.3974362200778048 2.242526121237867,-3.596154330116707 -7.176083587961174,-3.596154330116707 c-19.73422986689323,0 -51.57810078847094,12.786326507081627 -51.57810078847094,20.777780574007643 c0,3.596154330116707 -1.7940208969902938,7.991454066926017 -4.485052242475735,9.19017217696492 c-2.242526121237867,1.1987181100389026 -4.485052242475735,3.995727033463009 -4.485052242475735,6.3931632535408145 c0,5.993590550194512 17.04319852140779,4.395299736809309 29.601344800339845,-2.7970089234241056 c15.249177624417497,-9.19017217696492 17.491703745655364,-5.194445143501911 6.727578363713601,10.788462990350123 c-12.109641054684483,17.581198947237237 -11.661135830436908,19.57906246396874 1.7940208969902938,19.57906246396874 c6.727578363713601,0 13.903661951674776,-3.995727033463009 18.38871419415051,-10.388890287003822 zm120.19940009834967,-29.56838004762626 c0,-17.581198947237237 1.3455156727427204,-23.574789497431752 5.382062690970881,-22.376071387392845 c3.1395365697330138,1.1987181100389026 6.727578363713601,-0.799145406692602 8.073094036456322,-3.995727033463009 c3.1395365697330138,-7.192308660233414 -14.800672400169923,-13.985044617120531 -28.255829127597124,-10.788462990350123 c-10.31562015769419,2.3974362200778048 -13.00665150317963,13.185899210427928 -3.1395365697330138,13.185899210427928 c4.036547018228161,0 5.382062690970881,4.7948724401556095 4.485052242475735,17.181626243890936 c-0.8970104484951469,9.19017217696492 -0.44850522424757366,21.976498684046547 0.8970104484951469,27.97008923424106 c4.485052242475735,19.179489760622438 12.109641054684483,5.594017846848211 12.558146278932055,-21.177353277353944 zm-28.704334351844697,-24.773507607470656 c-9.867114933446615,-9.589744880311219 -9.867114933446615,-9.589744880311219 12.109641054684483,-21.976498684046547 c7.176083587961174,-3.995727033463009 7.176083587961174,-4.7948724401556095 0.8970104484951469,-9.98931758365752 c-3.588041793980587,-2.7970089234241056 -12.109641054684483,-11.987181100389025 -18.83721941839808,-19.97863516731504 c-13.455156727427202,-15.982908133852034 -28.255829127597124,-22.376071387392845 -35.880417939805874,-15.583335430505732 c-7.176083587961174,6.3931632535408145 5.382062690970881,13.585471913774228 13.455156727427202,7.591881363579716 c5.382062690970881,-3.995727033463009 8.970104484951468,0.799145406692602 16.594693297160216,21.976498684046547 c1.3455156727427204,3.596154330116707 7.176083587961174,8.790599473618618 12.558146278932055,10.788462990350123 c6.2790731394660275,1.9978635167315042 7.624588812208748,3.596154330116707 3.1395365697330138,3.596154330116707 c-3.588041793980587,0.3995727033463009 -12.558146278932055,-4.7948724401556095 -19.73422986689323,-11.587608397042725 c-15.697682848665071,-14.78419002381313 -21.528250763883523,-15.183762727159433 -15.697682848665071,-1.5982908133852036 c5.830567915218454,13.585471913774228 5.830567915218454,17.581198947237237 -1.7940208969902938,15.183762727159433 c-8.073094036456322,-2.7970089234241056 -17.940208969902937,19.179489760622438 -14.352167175922348,31.965816267704067 c1.3455156727427204,5.594017846848211 7.176083587961174,10.388890287003822 13.455156727427202,11.987181100389025 c5.830567915218454,1.1987181100389026 13.903661951674776,3.596154330116707 17.940208969902937,4.7948724401556095 c5.382062690970881,1.5982908133852036 7.176083587961174,0 7.176083587961174,-5.993590550194512 c0,-11.987181100389025 8.073094036456322,-10.388890287003822 12.109641054684483,2.7970089234241056 l3.588041793980587,10.788462990350123 l1.3455156727427204,-12.786326507081627 c0.8970104484951469,-8.790599473618618 -1.3455156727427204,-15.982908133852034 -8.073094036456322,-21.976498684046547 zm130.06651503179629,16.782053540544634 c0,-5.194445143501911 -4.9335574667233075,-5.194445143501911 -13.455156727427202,0 c-5.382062690970881,3.1965816267704072 -4.9335574667233075,3.995727033463009 3.588041793980587,3.995727033463009 c5.382062690970881,0 9.867114933446615,-1.5982908133852036 9.867114933446615,-3.995727033463009 zm-13.455156727427202,-21.177353277353944 c0,-1.9978635167315042 -1.7940208969902938,-1.9978635167315042 -4.485052242475735,-0.799145406692602 c-4.036547018228161,2.3974362200778048 -6.727578363713601,-6.3931632535408145 -4.485052242475735,-15.982908133852034 c0.44850522424757366,-1.9978635167315042 -1.7940208969902938,-1.9978635167315042 -4.485052242475735,0.799145406692602 c-4.485052242475735,3.596154330116707 -4.036547018228161,7.192308660233414 0.44850522424757366,16.782053540544634 c5.382062690970881,10.788462990350123 12.558146278932055,10.388890287003822 13.00665150317963,-0.799145406692602 zm-161.46188072912642,-21.177353277353944 c0,-2.3974362200778048 -2.6910313454854404,-6.792735956887114 -6.2790731394660275,-9.19017217696492 c-4.9335574667233075,-3.596154330116707 -7.176083587961174,-1.9978635167315042 -11.661135830436908,7.991454066926017 c-4.9335574667233075,10.388890287003822 -4.9335574667233075,12.786326507081627 0.44850522424757366,15.982908133852034 c6.727578363713601,3.596154330116707 17.491703745655364,-5.594017846848211 17.491703745655364,-14.78419002381313 zm6.2790731394660275,-18.38034435392984 c-4.036547018228161,-11.987181100389025 -4.485052242475735,-12.386753803735328 -10.764125381941762,-9.19017217696492 c-3.588041793980587,1.9978635167315042 -2.6910313454854404,5.194445143501911 2.6910313454854404,10.388890287003822 c9.867114933446615,9.98931758365752 12.109641054684483,9.589744880311219 8.073094036456322,-1.1987181100389026 zm242.19282109368964,-3.995727033463009 c4.036547018228161,-4.7948724401556095 7.176083587961174,-13.185899210427928 7.176083587961174,-17.980771650583538 c0,-13.185899210427928 15.249177624417497,-11.587608397042725 26.910313454854403,2.7970089234241056 c5.382062690970881,6.792735956887114 16.594693297160216,13.585471913774228 26.910313454854403,16.382480837198333 c15.249177624417497,3.995727033463009 19.73422986689323,3.596154330116707 39.019954509538884,-4.7948724401556095 c23.77077688512139,-10.388890287003822 41.710985855024326,-31.166670861011465 41.710985855024326,-47.149578994863504 c-0.44850522424757366,-9.19017217696492 -1.7940208969902938,-7.991454066926017 -11.212630606189336,7.991454066926017 c-21.528250763883523,36.76068870785968 -54.26913213395638,49.54701521494131 -80.28243514031564,31.166670861011465 c-12.558146278932055,-8.790599473618618 -14.800672400169923,-19.179489760622438 -6.727578363713601,-26.37179842085586 c4.036547018228161,-3.596154330116707 8.970104484951468,-2.7970089234241056 20.182735091140803,1.9978635167315042 c13.903661951674776,5.594017846848211 15.697682848665071,5.594017846848211 24.219282109368965,-1.1987181100389026 c11.661135830436908,-9.19017217696492 11.661135830436908,-21.976498684046547 0.44850522424757366,-21.976498684046547 c-4.9335574667233075,0 -12.109641054684483,-3.995727033463009 -15.697682848665071,-8.790599473618618 c-6.2790731394660275,-7.991454066926017 -6.2790731394660275,-9.98931758365752 -0.44850522424757366,-17.980771650583538 c6.2790731394660275,-7.991454066926017 5.830567915218454,-9.19017217696492 -1.3455156727427204,-12.786326507081627 c-10.764125381941762,-5.194445143501911 -16.594693297160216,-1.1987181100389026 -24.667787333616538,16.782053540544634 c-7.624588812208748,15.982908133852034 -12.558146278932055,17.980771650583538 -21.07974553963595,8.790599473618618 c-4.485052242475735,-4.7948724401556095 -4.036547018228161,-9.19017217696492 1.7940208969902938,-21.576925980700246 c6.2790731394660275,-14.78419002381313 6.2790731394660275,-16.382480837198333 -0.44850522424757366,-22.775644090739146 c-6.727578363713601,-5.993590550194512 -8.073094036456322,-5.594017846848211 -16.146188072912643,3.995727033463009 c-6.2790731394660275,7.591881363579716 -12.558146278932055,10.388890287003822 -23.77077688512139,10.388890287003822 c-13.00665150317963,0 -15.249177624417497,1.1987181100389026 -15.249177624417497,9.98931758365752 c0,7.991454066926017 3.1395365697330138,10.388890287003822 17.940208969902937,13.985044617120531 c13.455156727427202,3.1965816267704072 17.940208969902937,6.3931632535408145 17.940208969902937,12.386753803735328 c0,10.388890287003822 -10.764125381941762,13.585471913774228 -26.910313454854403,7.591881363579716 c-11.661135830436908,-4.395299736809309 -14.800672400169923,-3.995727033463009 -22.425261212378672,1.9978635167315042 c-12.109641054684483,9.589744880311219 -11.212630606189336,17.980771650583538 1.3455156727427204,17.980771650583538 c20.63124031538838,0 28.704334351844697,19.97863516731504 11.661135830436908,27.97008923424106 c-8.970104484951468,4.395299736809309 -8.970104484951468,4.7948724401556095 -1.3455156727427204,12.386753803735328 c10.31562015769419,9.98931758365752 21.976755988131096,9.589744880311219 30.498355248834994,-1.1987181100389026 zm-340.86397042815577,-4.395299736809309 c7.176083587961174,-4.395299736809309 7.624588812208748,-6.792735956887114 3.1395365697330138,-14.384617320466829 c-6.727578363713601,-10.788462990350123 -2.6910313454854404,-23.17521679408545 8.970104484951468,-26.37179842085586 c8.970104484951468,-2.7970089234241056 10.764125381941762,-8.790599473618618 4.485052242475735,-17.581198947237237 c-2.6910313454854404,-3.995727033463009 -8.521599260703894,-4.7948724401556095 -19.73422986689323,-2.7970089234241056 c-21.528250763883523,3.596154330116707 -24.667787333616538,-3.1965816267704072 -8.073094036456322,-17.181626243890936 c7.624588812208748,-6.3931632535408145 13.903661951674776,-15.183762727159433 13.903661951674776,-19.97863516731504 c0,-9.589744880311219 -4.036547018228161,-10.388890287003822 -20.182735091140803,-3.596154330116707 c-9.867114933446615,3.995727033463009 -12.558146278932055,3.1965816267704072 -21.976755988131096,-4.395299736809309 c-8.521599260703894,-7.192308660233414 -11.212630606189336,-7.591881363579716 -15.249177624417497,-3.1965816267704072 c-4.036547018228161,3.995727033463009 -4.036547018228161,8.790599473618618 0,17.980771650583538 c4.036547018228161,9.589744880311219 4.036547018228161,13.985044617120531 0.44850522424757366,17.181626243890936 c-7.176083587961174,6.3931632535408145 -14.800672400169923,0.799145406692602 -14.800672400169923,-9.98931758365752 c0,-4.7948724401556095 -2.6910313454854404,-11.987181100389025 -5.830567915218454,-15.982908133852034 c-4.485052242475735,-5.594017846848211 -8.073094036456322,-5.993590550194512 -17.940208969902937,-2.7970089234241056 c-13.455156727427202,4.7948724401556095 -15.697682848665071,10.388890287003822 -5.382062690970881,13.985044617120531 c13.00665150317963,4.395299736809309 7.624588812208748,18.38034435392984 -8.970104484951468,24.773507607470656 c-17.940208969902937,6.3931632535408145 -18.38871419415051,8.391026770272317 -8.521599260703894,20.777780574007643 c8.521599260703894,10.788462990350123 12.558146278932055,11.188035693696422 25.11629255786411,0 c17.04319852140779,-15.183762727159433 33.63789181856801,3.596154330116707 19.73422986689323,22.376071387392845 c-19.285724642645658,26.771371124202155 -74.90037244934476,6.3931632535408145 -85.21599260703894,-30.767098157665167 c-1.7940208969902938,-5.993590550194512 -4.9335574667233075,-9.98931758365752 -7.176083587961174,-8.790599473618618 c-4.9335574667233075,2.7970089234241056 0.8970104484951469,21.576925980700246 11.212630606189336,35.561970597820775 c21.976755988131096,29.56838004762626 74.45186722509719,29.56838004762626 100.46517023145644,0 c12.109641054684483,-13.985044617120531 22.873766436626244,-10.388890287003822 22.873766436626244,7.991454066926017 c0,9.19017217696492 2.6910313454854404,15.583335430505732 8.073094036456322,17.980771650583538 c9.867114933446615,5.594017846848211 11.212630606189336,5.194445143501911 20.63124031538838,-0.799145406692602 zm173.12301655956333,-4.7948724401556095 c12.558146278932055,-5.594017846848211 26.910313454854403,-20.378207870661345 26.910313454854403,-27.170943827548456 c0,-1.5982908133852036 -1.7940208969902938,-1.9978635167315042 -4.485052242475735,-0.799145406692602 c-2.242526121237867,1.1987181100389026 -4.485052242475735,-1.5982908133852036 -4.485052242475735,-6.3931632535408145 c0,-7.192308660233414 -0.8970104484951469,-7.591881363579716 -6.727578363713601,-3.596154330116707 c-5.830567915218454,3.995727033463009 -6.727578363713601,3.596154330116707 -6.727578363713601,-3.1965816267704072 c0,-18.77991705727614 -33.63789181856801,-20.777780574007643 -38.571449285291315,-2.7970089234241056 c-1.3455156727427204,5.594017846848211 -4.9335574667233075,9.19017217696492 -8.073094036456322,8.790599473618618 c-2.6910313454854404,-0.3995727033463009 -5.382062690970881,3.995727033463009 -6.2790731394660275,9.589744880311219 c-0.8970104484951469,7.991454066926017 2.242526121237867,12.386753803735328 15.697682848665071,20.777780574007643 c20.63124031538838,12.386753803735328 17.04319852140779,11.987181100389025 32.740881370072856,4.7948724401556095 zm-444.4686772293453,-32.365388971050365 c7.624588812208748,-5.594017846848211 15.697682848665071,-16.782053540544634 18.38871419415051,-25.572653014163254 c5.382062690970881,-17.181626243890936 40.81397540652918,-49.147442511595 43.95351197626219,-39.95727033463008 c1.3455156727427204,3.1965816267704072 -0.44850522424757366,6.3931632535408145 -3.1395365697330138,7.192308660233414 c-8.521599260703894,2.3974362200778048 -36.32892316405345,25.173080310816953 -36.32892316405345,29.16880734427996 c0,1.9978635167315042 3.1395365697330138,3.596154330116707 6.727578363713601,3.596154330116707 c5.382062690970881,0 6.2790731394660275,3.1965816267704072 4.036547018228161,15.982908133852034 c-1.7940208969902938,9.98931758365752 -1.3455156727427204,15.982908133852034 1.7940208969902938,15.982908133852034 c6.2790731394660275,0 23.322271660873817,-19.57906246396874 23.322271660873817,-26.37179842085586 c0,-8.790599473618618 7.624588812208748,-6.3931632535408145 10.764125381941762,3.1965816267704072 c4.9335574667233075,17.980771650583538 16.146188072912643,-1.5982908133852036 22.425261212378672,-39.55769763128378 c6.727578363713601,-38.75855222459118 9.41860970919904,-46.7500062915172 16.594693297160216,-42.75427925805419 c2.6910313454854404,1.1987181100389026 1.7940208969902938,5.993590550194512 -2.6910313454854404,11.987181100389025 c-4.036547018228161,5.594017846848211 -8.073094036456322,21.976498684046547 -9.41860970919904,36.76068870785968 l-2.242526121237867,26.771371124202155 l10.764125381941762,-11.587608397042725 c7.176083587961174,-7.192308660233414 12.109641054684483,-9.589744880311219 13.903661951674776,-6.792735956887114 c1.7940208969902938,2.3974362200778048 4.9335574667233075,4.395299736809309 7.624588812208748,4.395299736809309 c2.242526121237867,0 1.7940208969902938,-3.1965816267704072 -1.3455156727427204,-7.591881363579716 c-4.036547018228161,-5.993590550194512 -3.1395365697330138,-11.188035693696422 4.485052242475735,-27.570516530894757 c5.382062690970881,-11.188035693696422 9.867114933446615,-23.97436220077805 9.867114933446615,-28.36966193758736 c0,-7.591881363579716 -19.285724642645658,-24.373934904124347 -27.807323903349552,-24.373934904124347 c-14.352167175922348,0 -37.225933612548594,15.583335430505732 -52.92361646121366,35.961543301167076 c-21.07974553963595,27.570516530894757 -39.46845973378646,41.95513385136159 -69.51830975837387,54.34188765509691 c-26.01330300635926,11.188035693696422 -59.20268960067969,12.386753803735328 -78.48841424332535,3.596154330116707 c-7.624588812208748,-3.596154330116707 -13.455156727427202,-4.7948724401556095 -13.455156727427202,-2.7970089234241056 c0,8.790599473618618 19.285724642645658,17.581198947237237 46.644543321747626,21.576925980700246 c28.704334351844697,4.395299736809309 36.77742838830102,9.19017217696492 22.873766436626244,13.585471913774228 c-3.588041793980587,1.5982908133852036 -5.382062690970881,3.995727033463009 -4.036547018228161,5.993590550194512 c4.485052242475735,6.792735956887114 23.77077688512139,3.596154330116707 37.225933612548594,-6.792735956887114 zm388.40552419839855,1.9978635167315042 c4.485052242475735,-5.993590550194512 -0.44850522424757366,-9.19017217696492 -8.970104484951468,-5.993590550194512 c-4.036547018228161,1.1987181100389026 -5.830567915218454,3.995727033463009 -4.485052242475735,6.3931632535408145 c3.588041793980587,5.194445143501911 9.867114933446615,5.194445143501911 13.455156727427202,-0.3995727033463009 zm123.3389366680827,-3.596154330116707 c29.152839576092273,-13.185899210427928 53.82062690970881,-51.5448787316728 53.82062690970881,-83.91026770272317 c0,-27.570516530894757 -7.176083587961174,-25.173080310816953 -10.31562015769419,3.1965816267704072 c-3.588041793980587,36.76068870785968 -21.528250763883523,62.33334172202293 -53.37212168546124,77.11753174583606 c-9.41860970919904,4.395299736809309 -17.04319852140779,8.790599473618618 -17.04319852140779,9.589744880311219 c0,3.995727033463009 9.867114933446615,1.5982908133852036 26.910313454854403,-5.993590550194512 zm-171.77750088682063,-17.980771650583538 c-31.84387092157771,-27.570516530894757 -40.365470182281605,-57.538469281867314 -27.807323903349552,-96.29702150645849 c7.176083587961174,-21.576925980700246 30.946860473082566,-57.538469281867314 38.571449285291315,-57.538469281867314 c4.036547018228161,0 2.242526121237867,-10.788462990350123 -2.6910313454854404,-14.78419002381313 c-1.7940208969902938,-1.5982908133852036 -2.242526121237867,-1.1987181100389026 -0.8970104484951469,1.5982908133852036 c1.7940208969902938,2.3974362200778048 -2.242526121237867,5.993590550194512 -9.867114933446615,8.391026770272317 c-9.867114933446615,3.1965816267704072 -16.594693297160216,10.388890287003822 -27.35881867910198,30.367525454318866 c-12.558146278932055,21.976498684046547 -14.352167175922348,30.367525454318866 -14.352167175922348,55.54060576513582 c0,19.97863516731504 2.242526121237867,34.36325248778187 8.073094036456322,44.75214277478569 c9.867114933446615,19.179489760622438 34.08639704281558,41.95513385136159 44.40201720050977,41.95513385136159 c6.2790731394660275,0 4.036547018228161,-3.1965816267704072 -8.073094036456322,-13.985044617120531 zm167.29244864434486,-8.790599473618618 c0,-15.183762727159433 18.38871419415051,-53.14316954505801 32.29237614582529,-67.52778686552485 c17.491703745655364,-17.581198947237237 42.1594910792719,-24.373934904124347 65.9302679643933,-18.38034435392984 c22.873766436626244,6.3931632535408145 23.77077688512139,6.3931632535408145 21.976755988131096,-3.995727033463009 c-0.8970104484951469,-5.594017846848211 -7.176083587961174,-11.587608397042725 -15.249177624417497,-15.583335430505732 l-13.903661951674776,-5.993590550194512 l10.31562015769419,-11.188035693696422 c6.727578363713601,-6.3931632535408145 10.764125381941762,-15.982908133852034 10.764125381941762,-23.97436220077805 c0,-15.982908133852034 -3.1395365697330138,-19.179489760622438 -13.903661951674776,-13.985044617120531 c-7.624588812208748,3.596154330116707 -8.521599260703894,2.3974362200778048 -8.521599260703894,-9.98931758365752 c0,-17.980771650583538 -3.588041793980587,-25.572653014163254 -13.903661951674776,-30.767098157665167 c-8.073094036456322,-3.596154330116707 -8.521599260703894,-2.7970089234241056 -5.830567915218454,11.987181100389025 c5.382062690970881,29.56838004762626 -1.3455156727427204,50.7457333249802 -28.255829127597124,85.50855851610838 c-33.63789181856801,43.952997368093094 -46.644543321747626,70.32479578894895 -49.335574667233075,99.89317583657521 c-1.3455156727427204,17.980771650583538 -0.8970104484951469,23.17521679408545 2.6910313454854404,18.77991705727614 c2.6910313454854404,-3.1965816267704072 4.9335574667233075,-9.98931758365752 4.9335574667233075,-14.78419002381313 zm-60.54820527342241,-35.561970597820775 c0,-13.985044617120531 -14.352167175922348,-18.38034435392984 -23.322271660873817,-7.192308660233414 c-8.521599260703894,10.388890287003822 -7.176083587961174,13.585471913774228 4.485052242475735,12.386753803735328 c6.2790731394660275,-0.3995727033463009 9.41860970919904,1.1987181100389026 8.521599260703894,4.395299736809309 c-0.44850522424757366,3.1965816267704072 1.3455156727427204,4.7948724401556095 4.485052242475735,3.995727033463009 c3.1395365697330138,-1.1987181100389026 5.830567915218454,-7.192308660233414 5.830567915218454,-13.585471913774228 zm35.880417939805874,-9.589744880311219 c1.3455156727427204,-1.9978635167315042 0.44850522424757366,-3.995727033463009 -1.7940208969902938,-3.995727033463009 c-2.6910313454854404,0 -4.9335574667233075,-2.7970089234241056 -4.9335574667233075,-5.993590550194512 c0,-3.1965816267704072 3.1395365697330138,-5.993590550194512 7.176083587961174,-5.993590550194512 c9.41860970919904,0 5.382062690970881,-9.589744880311219 -4.485052242475735,-11.188035693696422 c-9.867114933446615,-1.9978635167315042 -20.63124031538838,5.993590550194512 -20.63124031538838,14.78419002381313 c0,12.786326507081627 17.940208969902937,21.976498684046547 24.667787333616538,12.386753803735328 zm-74.90037244934476,-12.386753803735328 c1.3455156727427204,-11.987181100389025 -8.970104484951468,-21.576925980700246 -19.73422986689323,-17.980771650583538 c-5.830567915218454,1.9978635167315042 -6.2790731394660275,3.596154330116707 -1.7940208969902938,8.391026770272317 c4.485052242475735,4.7948724401556095 4.036547018228161,6.3931632535408145 -1.7940208969902938,8.391026770272317 c-5.830567915218454,1.9978635167315042 -6.2790731394660275,3.596154330116707 -2.242526121237867,8.391026770272317 c8.521599260703894,9.19017217696492 24.219282109368965,4.7948724401556095 25.564797782111686,-7.192308660233414 zm35.880417939805874,-10.388890287003822 c-0.8970104484951469,-3.995727033463009 -5.382062690970881,-7.192308660233414 -10.31562015769419,-7.192308660233414 c-4.9335574667233075,0 -9.41860970919904,3.1965816267704072 -10.31562015769419,7.192308660233414 c-1.3455156727427204,5.194445143501911 1.3455156727427204,6.792735956887114 10.31562015769419,6.792735956887114 c8.970104484951468,0 11.661135830436908,-1.5982908133852036 10.31562015769419,-6.792735956887114 zm289.28586963968485,-16.382480837198333 c8.521599260703894,-7.991454066926017 5.830567915218454,-12.786326507081627 -6.2790731394660275,-12.786326507081627 c-7.176083587961174,0 -13.00665150317963,7.591881363579716 -13.00665150317963,16.382480837198333 c0,5.993590550194512 11.661135830436908,3.995727033463009 19.285724642645658,-3.596154330116707 zm-453.8872869385443,-7.192308660233414 c11.212630606189336,1.9978635167315042 13.00665150317963,0.799145406692602 17.491703745655364,-11.987181100389025 c4.036547018228161,-11.188035693696422 4.036547018228161,-18.38034435392984 0,-31.965816267704067 c-5.382062690970881,-16.782053540544634 -4.036547018228161,-49.54701521494131 2.242526121237867,-68.32693227221745 c4.485052242475735,-12.786326507081627 -4.485052242475735,-11.587608397042725 -14.352167175922348,1.5982908133852036 c-5.382062690970881,7.192308660233414 -8.073094036456322,18.38034435392984 -8.073094036456322,34.36325248778187 l0,23.574789497431752 l-8.970104484951468,-10.388890287003822 c-12.558146278932055,-13.985044617120531 -15.697682848665071,-13.185899210427928 -15.697682848665071,4.7948724401556095 c0,17.581198947237237 3.588041793980587,22.775644090739146 16.146188072912643,26.37179842085586 c5.382062690970881,1.5982908133852036 13.455156727427202,6.3931632535408145 17.940208969902937,11.188035693696422 l8.521599260703894,8.391026770272317 l-12.109641054684483,-7.192308660233414 c-8.073094036456322,-4.395299736809309 -16.594693297160216,-5.993590550194512 -23.77077688512139,-4.395299736809309 c-13.00665150317963,2.7970089234241056 -26.910313454854403,19.57906246396874 -22.873766436626244,28.36966193758736 c2.242526121237867,5.594017846848211 4.036547018228161,5.594017846848211 16.594693297160216,-0.3995727033463009 c8.521599260703894,-3.596154330116707 19.285724642645658,-5.594017846848211 26.910313454854403,-3.995727033463009 zm-128.272494134806,-3.596154330116707 c0,-9.98931758365752 -13.903661951674776,-17.181626243890936 -20.63124031538838,-11.188035693696422 c-4.485052242475735,3.995727033463009 -3.588041793980587,6.792735956887114 2.6910313454854404,13.185899210427928 c9.41860970919904,9.589744880311219 17.940208969902937,8.391026770272317 17.940208969902937,-1.9978635167315042 zm270.44865022128675,5.194445143501911 c7.176083587961174,-6.3931632535408145 6.727578363713601,-17.181626243890936 -0.8970104484951469,-22.775644090739146 c-4.9335574667233075,-3.596154330116707 -6.727578363713601,-3.1965816267704072 -8.970104484951468,1.5982908133852036 c-1.7940208969902938,4.395299736809309 -5.830567915218454,5.594017846848211 -11.661135830436908,3.995727033463009 c-6.727578363713601,-1.9978635167315042 -8.970104484951468,-0.799145406692602 -8.970104484951468,4.7948724401556095 c0,9.19017217696492 8.521599260703894,17.181626243890936 17.940208969902937,17.181626243890936 c4.036547018228161,0 9.41860970919904,-1.9978635167315042 12.558146278932055,-4.7948724401556095 zm49.335574667233075,0 c8.073094036456322,-7.192308660233414 6.727578363713601,-16.382480837198333 -1.7940208969902938,-13.585471913774228 c-10.31562015769419,3.596154330116707 -16.594693297160216,-1.1987181100389026 -10.31562015769419,-7.991454066926017 c4.036547018228161,-4.395299736809309 3.588041793980587,-5.594017846848211 -1.3455156727427204,-5.594017846848211 c-8.521599260703894,0 -17.04319852140779,7.991454066926017 -17.04319852140779,15.982908133852034 c0,8.391026770272317 8.521599260703894,15.982908133852034 17.940208969902937,15.982908133852034 c4.036547018228161,0 9.41860970919904,-1.9978635167315042 12.558146278932055,-4.7948724401556095 zm243.08983154218478,-11.188035693696422 c0,-1.9978635167315042 -10.31562015769419,-6.3931632535408145 -23.322271660873817,-9.98931758365752 c-26.01330300635926,-6.792735956887114 -73.10635155235447,-8.391026770272317 -68.62129930987874,-1.9978635167315042 c1.3455156727427204,2.3974362200778048 14.352167175922348,3.995727033463009 28.255829127597124,4.395299736809309 c13.903661951674776,0 32.740881370072856,2.3974362200778048 41.26248063077676,5.194445143501911 c20.182735091140803,6.792735956887114 22.425261212378672,7.192308660233414 22.425261212378672,2.3974362200778048 zm-515.7810078847094,-10.388890287003822 c13.455156727427202,-3.1965816267704072 30.049850024587418,-5.594017846848211 36.77742838830102,-5.594017846848211 c6.727578363713601,0 12.558146278932055,-1.5982908133852036 12.558146278932055,-3.995727033463009 c0,-8.391026770272317 -53.82062690970881,-2.3974362200778048 -79.38542469182049,8.790599473618618 c-12.109641054684483,5.194445143501911 -13.903661951674776,13.185899210427928 -2.242526121237867,9.19017217696492 c4.036547018228161,-1.1987181100389026 18.83721941839808,-5.194445143501911 32.29237614582529,-8.391026770272317 zm349.83407491310726,-1.1987181100389026 c0,-3.995727033463009 -8.073094036456322,-15.183762727159433 -17.491703745655364,-24.773507607470656 c-14.800672400169923,-14.78419002381313 -18.38871419415051,-16.782053540544634 -23.77077688512139,-11.987181100389025 c-3.1395365697330138,3.1965816267704072 -3.588041793980587,4.395299736809309 -1.3455156727427204,3.1965816267704072 c2.6910313454854404,-1.1987181100389026 7.624588812208748,-0.3995727033463009 11.212630606189336,1.5982908133852036 c4.9335574667233075,2.3974362200778048 2.242526121237867,3.1965816267704072 -7.624588812208748,1.5982908133852036 c-22.425261212378672,-3.1965816267704072 -17.940208969902937,5.993590550194512 11.212630606189336,22.775644090739146 c13.903661951674776,8.391026770272317 26.01330300635926,15.183762727159433 26.910313454854403,15.183762727159433 c0.44850522424757366,0 0.8970104484951469,-3.1965816267704072 0.8970104484951469,-7.591881363579716 z" id="svg_3" fill="#b8b804" fill-opacity="1"/>
<path d="M767.9837455863023,2831.3375589865886 c3.588041793980587,-1.9978635167315042 8.970104484951468,-3.995727033463009 11.212630606189336,-3.995727033463009 c2.6910313454854404,0 1.3455156727427204,1.9978635167315042 -2.242526121237867,3.995727033463009 c-3.588041793980587,1.9978635167315042 -8.521599260703894,3.995727033463009 -11.212630606189336,3.995727033463009 c-2.242526121237867,0 -1.3455156727427204,-1.9978635167315042 2.242526121237867,-3.995727033463009 z" id="svg_4" fill="#b8b804" fill-opacity="1"/>
<path d="M615.9404745663746,2782.1901164749934 c4.485052242475735,-8.790599473618618 6.727578363713601,-9.98931758365752 12.109641054684483,-5.993590550194512 c5.382062690970881,3.995727033463009 5.382062690970881,5.194445143501911 0.44850522424757366,6.3931632535408145 c-3.588041793980587,1.1987181100389026 -8.970104484951468,3.596154330116707 -12.109641054684483,5.993590550194512 c-4.9335574667233075,3.1965816267704072 -4.9335574667233075,1.9978635167315042 -0.44850522424757366,-6.3931632535408145 z" id="svg_5" fill="#b8b804" fill-opacity="1"/>
<path d="M875.62499940572,2693.884549035461 c0,-3.596154330116707 2.242526121237867,-6.3931632535408145 4.485052242475735,-6.3931632535408145 c2.6910313454854404,0 4.485052242475735,1.5982908133852036 4.485052242475735,3.596154330116707 c0,2.3974362200778048 -1.7940208969902938,5.194445143501911 -4.485052242475735,6.3931632535408145 c-2.242526121237867,1.1987181100389026 -4.485052242475735,-0.3995727033463009 -4.485052242475735,-3.596154330116707 z" id="svg_6" fill="#b8b804" fill-opacity="1"/>
<path d="M459.41215130397177,2678.7007863083018 c2.6910313454854404,-7.192308660233414 12.558146278932055,-8.391026770272317 12.558146278932055,-1.5982908133852036 c0,3.596154330116707 -3.1395365697330138,6.3931632535408145 -7.176083587961174,6.3931632535408145 c-4.036547018228161,0 -6.2790731394660275,-1.9978635167315042 -5.382062690970881,-4.7948724401556095 z" id="svg_7" fill="#b8b804" fill-opacity="1"/>
<path d="M663.0335231123702,2721.455065566356 c-2.242526121237867,-5.194445143501911 0,-6.3931632535408145 12.109641054684483,-5.194445143501911 c16.594693297160216,1.1987181100389026 17.491703745655364,8.391026770272317 1.7940208969902938,10.388890287003822 c-6.727578363713601,0.799145406692602 -12.109641054684483,-1.1987181100389026 -13.903661951674776,-5.194445143501911 z" id="svg_8" fill="#b8b804" fill-opacity="1"/>
<path d="M660.7909969911323,2693.0854036287683 c0,-4.395299736809309 1.3455156727427204,-5.594017846848211 2.6910313454854404,-2.3974362200778048 c1.3455156727427204,2.7970089234241056 0.8970104484951469,6.3931632535408145 -0.44850522424757366,7.591881363579716 c-1.3455156727427204,1.5982908133852036 -2.6910313454854404,-0.799145406692602 -2.242526121237867,-5.194445143501911 z" id="svg_9" fill="#b8b804" fill-opacity="1"/>
<path d="M669.3125962518361,2684.694376858496 c0,-3.1965816267704072 2.242526121237867,-5.194445143501911 5.382062690970881,-4.395299736809309 c8.073094036456322,2.3974362200778048 9.41860970919904,9.98931758365752 1.3455156727427204,9.98931758365752 c-3.588041793980587,0 -6.727578363713601,-2.7970089234241056 -6.727578363713601,-5.594017846848211 z" id="svg_10" fill="#b8b804" fill-opacity="1"/>
<path d="M308.26589073253956,2623.559753246512 c-1.3455156727427204,-1.9978635167315042 -0.44850522424757366,-3.995727033463009 1.7940208969902938,-3.995727033463009 c2.6910313454854404,0 4.9335574667233075,1.9978635167315042 4.9335574667233075,3.995727033463009 c0,2.3974362200778048 -0.8970104484951469,3.995727033463009 -1.7940208969902938,3.995727033463009 c-1.3455156727427204,0 -3.588041793980587,-1.5982908133852036 -4.9335574667233075,-3.995727033463009 z" id="svg_11" fill="#b8b804" fill-opacity="1"/>
<path d="M361.18950719375323,2605.978554299275 c1.7940208969902938,-3.995727033463009 0.8970104484951469,-10.788462990350123 -2.242526121237867,-15.583335430505732 c-4.485052242475735,-7.991454066926017 -4.485052242475735,-8.391026770272317 2.242526121237867,-3.1965816267704072 c8.970104484951468,6.3931632535408145 9.867114933446615,18.77991705727614 2.242526121237867,22.775644090739146 c-3.588041793980587,1.9978635167315042 -4.036547018228161,0.799145406692602 -2.242526121237867,-3.995727033463009 z" id="svg_12" fill="#b8b804" fill-opacity="1"/>
<path d="M664.8275440093603,2925.237144272969 c-5.382062690970881,-12.786326507081627 -5.382062690970881,-11.188035693696422 0,-23.97436220077805 c4.036547018228161,-9.19017217696492 5.830567915218454,-9.98931758365752 11.212630606189336,-5.993590550194512 c3.588041793980587,2.7970089234241056 6.727578363713601,7.192308660233414 6.727578363713601,9.589744880311219 c0,2.3974362200778048 -1.7940208969902938,1.5982908133852036 -4.485052242475735,-1.5982908133852036 c-5.830567915218454,-8.391026770272317 -8.073094036456322,-3.995727033463009 -5.830567915218454,10.788462990350123 c1.3455156727427204,7.591881363579716 4.485052242475735,11.987181100389025 6.727578363713601,10.788462990350123 c2.6910313454854404,-1.5982908133852036 4.036547018228161,-0.3995727033463009 2.6910313454854404,2.3974362200778048 c-3.588041793980587,9.98931758365752 -12.558146278932055,8.790599473618618 -17.04319852140779,-1.9978635167315042 z" id="svg_13" fill="#b8b804" fill-opacity="1"/>
<path d="M601.1398021662048,2910.0533815458098 c-5.830567915218454,-11.987181100389025 -4.036547018228161,-17.980771650583538 5.382062690970881,-20.777780574007643 c9.867114933446615,-2.7970089234241056 26.910313454854403,3.995727033463009 26.910313454854403,10.788462990350123 c0,3.596154330116707 -1.3455156727427204,3.596154330116707 -5.382062690970881,0 c-9.867114933446615,-8.790599473618618 -20.63124031538838,-5.594017846848211 -22.425261212378672,6.3931632535408145 c-0.8970104484951469,8.790599473618618 -1.7940208969902938,9.589744880311219 -4.485052242475735,3.596154330116707 z" id="svg_14" fill="#b8b804" fill-opacity="1"/>
<path d="M1262.2365027071285,2839.3290130535147 c22.425261212378672,-1.9978635167315042 40.81397540652918,-6.3931632535408145 53.37212168546124,-12.386753803735328 c26.01330300635926,-13.185899210427928 28.704334351844697,-21.976498684046547 3.1395365697330138,-11.587608397042725 c-10.764125381941762,4.395299736809309 -25.11629255786411,7.991454066926017 -32.29237614582529,7.991454066926017 c-10.764125381941762,0 -12.109641054684483,-0.799145406692602 -7.176083587961174,-5.993590550194512 c11.212630606189336,-12.386753803735328 -1.3455156727427204,-14.78419002381313 -31.84387092157771,-5.993590550194512 c-31.84387092157771,8.790599473618618 -53.82062690970881,9.98931758365752 -67.27578363713602,3.995727033463009 c-13.903661951674776,-6.792735956887114 -9.867114933446615,-11.587608397042725 10.31562015769419,-12.786326507081627 c10.31562015769419,-0.799145406692602 19.285724642645658,-3.596154330116707 20.63124031538838,-5.993590550194512 c0.8970104484951469,-2.7970089234241056 -1.3455156727427204,-5.194445143501911 -4.9335574667233075,-5.194445143501911 c-3.588041793980587,0 -11.212630606189336,-3.596154330116707 -17.04319852140779,-7.591881363579716 c-8.521599260703894,-6.3931632535408145 -9.867114933446615,-8.790599473618618 -4.9335574667233075,-12.786326507081627 c7.624588812208748,-7.192308660233414 6.727578363713601,-11.587608397042725 -2.6910313454854404,-11.587608397042725 c-4.485052242475735,0 -13.903661951674776,5.594017846848211 -20.182735091140803,11.987181100389025 c-6.727578363713601,6.792735956887114 -15.697682848665071,11.987181100389025 -20.182735091140803,11.987181100389025 c-9.867114933446615,0 -35.880417939805874,-14.384617320466829 -57.40866870368939,-31.965816267704067 c-16.594693297160216,-13.585471913774228 -17.491703745655364,-15.183762727159433 -17.491703745655364,-39.15812492793748 c0,-29.16880734427996 8.073094036456322,-35.561970597820775 17.491703745655364,-14.78419002381313 c6.2790731394660275,13.185899210427928 30.049850024587418,29.967952750972565 42.60799630351947,29.967952750972565 c4.036547018228161,0 4.9335574667233075,-2.7970089234241056 3.1395365697330138,-9.589744880311219 c-2.6910313454854404,-9.19017217696492 -1.7940208969902938,-9.589744880311219 16.594693297160216,-7.591881363579716 c22.873766436626244,2.7970089234241056 27.35881867910198,5.194445143501911 8.970104484951468,5.194445143501911 c-9.867114933446615,0 -14.352167175922348,2.3974362200778048 -16.146188072912643,7.991454066926017 c-3.588041793980587,11.587608397042725 -20.63124031538838,9.98931758365752 -42.1594910792719,-3.995727033463009 l-18.38871419415051,-11.987181100389025 l-3.1395365697330138,12.386753803735328 c-3.588041793980587,14.384617320466829 6.2790731394660275,25.972225717509556 37.67443883679616,43.952997368093094 c24.667787333616538,13.985044617120531 31.84387092157771,14.384617320466829 47.09304854599521,1.5982908133852036 c13.00665150317963,-10.788462990350123 29.152839576092273,-12.786326507081627 37.67443883679616,-5.194445143501911 c4.036547018228161,3.596154330116707 3.588041793980587,6.3931632535408145 -1.7940208969902938,11.987181100389025 c-6.727578363713601,6.3931632535408145 -6.727578363713601,7.192308660233414 0,9.589744880311219 c4.036547018228161,1.1987181100389026 11.212630606189336,1.5982908133852036 16.146188072912643,0.3995727033463009 c7.176083587961174,-1.5982908133852036 8.970104484951468,0 8.970104484951468,6.792735956887114 c0,11.587608397042725 -8.073094036456322,18.38034435392984 -21.976755988131096,18.38034435392984 c-8.970104484951468,0 -9.867114933446615,1.1987181100389026 -5.830567915218454,4.7948724401556095 c4.485052242475735,3.995727033463009 13.903661951674776,3.1965816267704072 45.74753287325249,-4.395299736809309 c41.26248063077676,-9.589744880311219 56.960163479441825,-9.19017217696492 52.02660601271852,1.5982908133852036 c-4.036547018228161,9.589744880311219 14.800672400169923,7.192308660233414 37.225933612548594,-3.995727033463009 c10.764125381941762,-5.594017846848211 20.63124031538838,-9.19017217696492 21.976755988131096,-8.391026770272317 c0.8970104484951469,1.1987181100389026 -1.7940208969902938,7.991454066926017 -6.727578363713601,15.183762727159433 c-12.558146278932055,19.57906246396874 -37.225933612548594,28.769234640933657 -79.83392991606807,29.56838004762626 l-35.880417939805874,0.799145406692602 l34.53490226706315,-3.1965816267704072 z" id="svg_15" fill="#b8b804" fill-opacity="1"/>
<path d="M1211.1069071429051,2836.5320041300906 c3.1395365697330138,-1.1987181100389026 7.176083587961174,-0.799145406692602 8.521599260703894,0.3995727033463009 c1.7940208969902938,1.1987181100389026 -0.8970104484951469,2.3974362200778048 -5.830567915218454,1.9978635167315042 c-4.9335574667233075,0 -6.2790731394660275,-1.1987181100389026 -2.6910313454854404,-2.3974362200778048 z" id="svg_16" fill="#b8b804" fill-opacity="1"/>
<path d="M1193.1666981730018,2832.5362770966276 c3.1395365697330138,-1.1987181100389026 7.176083587961174,-0.799145406692602 8.521599260703894,0.3995727033463009 c1.7940208969902938,1.1987181100389026 -0.8970104484951469,2.3974362200778048 -5.830567915218454,1.9978635167315042 c-4.9335574667233075,0 -6.2790731394660275,-1.1987181100389026 -2.6910313454854404,-2.3974362200778048 z" id="svg_17" fill="#b8b804" fill-opacity="1"/>
<path d="M25.259094232320706,2800.170888125577 c-11.661135830436908,-8.391026770272317 -19.73422986689323,-21.576925980700246 -19.73422986689323,-32.365388971050365 c0,-10.788462990350123 7.176083587961174,-10.788462990350123 13.455156727427202,-0.3995727033463009 c5.382062690970881,9.19017217696492 22.873766436626244,17.980771650583538 43.95351197626219,21.976498684046547 c12.558146278932055,2.3974362200778048 14.352167175922348,1.5982908133852036 14.352167175922348,-5.194445143501911 c0,-4.395299736809309 3.1395365697330138,-9.19017217696492 7.176083587961174,-10.388890287003822 c7.176083587961174,-2.3974362200778048 30.498355248834994,6.3931632535408145 35.4319127155583,13.585471913774228 c4.036547018228161,5.993590550194512 30.498355248834994,4.7948724401556095 40.81397540652918,-1.9978635167315042 c8.521599260703894,-5.594017846848211 8.521599260703894,-5.594017846848211 -0.8970104484951469,-5.993590550194512 c-9.867114933446615,0 -24.219282109368965,-11.587608397042725 -24.219282109368965,-19.179489760622438 c0,-2.3974362200778048 4.485052242475735,-4.7948724401556095 9.867114933446615,-5.594017846848211 c7.176083587961174,-0.799145406692602 10.764125381941762,-4.395299736809309 12.109641054684483,-11.188035693696422 c2.6910313454854404,-18.77991705727614 20.63124031538838,-19.179489760622438 39.916964958034036,-1.5982908133852036 c11.661135830436908,11.188035693696422 26.910313454854403,12.386753803735328 45.74753287325249,3.596154330116707 c7.624588812208748,-3.596154330116707 13.455156727427202,-5.194445143501911 13.455156727427202,-3.995727033463009 c0,1.5982908133852036 -9.41860970919904,5.993590550194512 -20.63124031538838,10.388890287003822 c-19.73422986689323,7.991454066926017 -42.1594910792719,7.991454066926017 -42.1594910792719,0 c0,-6.3931632535408145 -13.903661951674776,-16.382480837198333 -22.873766436626244,-16.382480837198333 c-6.2790731394660275,0 -8.521599260703894,2.7970089234241056 -8.521599260703894,9.98931758365752 c0,6.792735956887114 -3.588041793980587,11.587608397042725 -11.212630606189336,14.78419002381313 c-8.521599260703894,3.596154330116707 -9.867114933446615,5.594017846848211 -6.2790731394660275,9.98931758365752 c2.6910313454854404,2.7970089234241056 9.41860970919904,5.194445143501911 14.800672400169923,5.194445143501911 c4.9335574667233075,0 12.109641054684483,1.5982908133852036 15.697682848665071,3.596154330116707 c4.9335574667233075,2.7970089234241056 2.6910313454854404,5.194445143501911 -8.970104484951468,10.388890287003822 c-20.63124031538838,9.589744880311219 -45.29902764900491,9.19017217696492 -60.54820527342241,-1.5982908133852036 c-6.2790731394660275,-4.395299736809309 -14.800672400169923,-8.391026770272317 -17.940208969902937,-8.391026770272317 c-7.624588812208748,0 -8.073094036456322,8.790599473618618 -0.44850522424757366,15.583335430505732 c4.485052242475735,3.995727033463009 2.6910313454854404,4.395299736809309 -8.073094036456322,2.3974362200778048 c-36.32892316405345,-7.591881363579716 -47.09304854599521,-10.788462990350123 -58.305679152184545,-18.77991705727614 l-12.558146278932055,-8.391026770272317 l5.830567915218454,9.589744880311219 c2.6910313454854404,5.194445143501911 10.764125381941762,13.585471913774228 17.04319852140779,18.38034435392984 c13.903661951674776,10.788462990350123 7.624588812208748,12.386753803735328 -6.2790731394660275,1.9978635167315042 z" id="svg_18" fill="#b8b804" fill-opacity="1"/>
<path d="M723.5817283857925,2787.784134321842 c-8.970104484951468,-1.9978635167315042 -9.41860970919904,-3.1965816267704072 -4.036547018228161,-7.192308660233414 c4.9335574667233075,-3.995727033463009 7.176083587961174,-3.1965816267704072 11.661135830436908,3.1965816267704072 c3.1395365697330138,3.995727033463009 4.9335574667233075,7.591881363579716 4.485052242475735,7.192308660233414 c-0.8970104484951469,-0.3995727033463009 -6.2790731394660275,-1.5982908133852036 -12.109641054684483,-3.1965816267704072 z" id="svg_19" fill="#b8b804" fill-opacity="1"/>
<path d="M185.3754592887044,2776.995671331492 c0,-4.395299736809309 1.3455156727427204,-5.594017846848211 2.6910313454854404,-2.3974362200778048 c1.3455156727427204,2.7970089234241056 0.8970104484951469,6.3931632535408145 -0.44850522424757366,7.591881363579716 c-1.3455156727427204,1.5982908133852036 -2.6910313454854404,-0.799145406692602 -2.242526121237867,-5.194445143501911 z" id="svg_20" fill="#b8b804" fill-opacity="1"/>
<path d="M270.1429466714958,2729.446519633282 c5.830567915218454,-5.594017846848211 11.661135830436908,-9.98931758365752 12.558146278932055,-9.98931758365752 c1.3455156727427204,0 -2.242526121237867,4.395299736809309 -8.073094036456322,9.98931758365752 c-5.830567915218454,5.594017846848211 -11.661135830436908,9.98931758365752 -12.558146278932055,9.98931758365752 c-1.3455156727427204,0 2.242526121237867,-4.395299736809309 8.073094036456322,-9.98931758365752 z" id="svg_21" fill="#b8b804" fill-opacity="1"/>
<path d="M1069.8277615049192,2674.7050592748387 c-1.7940208969902938,-3.1965816267704072 -10.31562015769419,-9.589744880311219 -17.940208969902937,-14.78419002381313 c-15.249177624417497,-9.19017217696492 -19.285724642645658,-16.782053540544634 -8.970104484951468,-15.982908133852034 c6.727578363713601,0.3995727033463009 36.77742838830102,30.767098157665167 33.18938659432043,33.96367978443557 c-1.3455156727427204,1.1987181100389026 -4.036547018228161,-0.3995727033463009 -6.2790731394660275,-3.1965816267704072 z" id="svg_22" fill="#b8b804" fill-opacity="1"/>
<path d="M1035.7413644621035,2664.3161689878348 c-4.485052242475735,-3.995727033463009 -7.624588812208748,-11.587608397042725 -7.176083587961174,-17.181626243890936 c0.44850522424757366,-9.19017217696492 0.44850522424757366,-9.19017217696492 4.036547018228161,1.5982908133852036 c2.242526121237867,6.3931632535408145 6.2790731394660275,13.985044617120531 9.41860970919904,17.181626243890936 c7.624588812208748,8.391026770272317 2.242526121237867,6.792735956887114 -6.2790731394660275,-1.5982908133852036 z" id="svg_23" fill="#b8b804" fill-opacity="1"/>
<path d="M979.2297062069094,2615.568299179586 c-0.44850522424757366,-10.388890287003822 6.727578363713601,-19.97863516731504 14.800672400169923,-19.97863516731504 c2.242526121237867,0 1.3455156727427204,2.3974362200778048 -2.6910313454854404,5.194445143501911 c-4.036547018228161,2.3974362200778048 -8.521599260703894,9.19017217696492 -9.41860970919904,14.78419002381313 l-1.7940208969902938,9.98931758365752 l-0.8970104484951469,-9.98931758365752 z" id="svg_24" fill="#b8b804" fill-opacity="1"/>
</g></g></svg>