<svg version="1.0" xmlns="http://www.w3.org/2000/svg" width="297.7900695800781" height="67.1878433227539" preserveAspectRatio="xMidYMid meet" style=""><rect id="backgroundrect" width="100%" height="100%" x="0" y="0" fill="none" stroke="none" style="" class=""/>


<g class="currentLayer" style=""><title>Layer 1</title><g transform="translate(0, 300) scale(0.1, -0.1)" fill="#b8b804" stroke="none" id="svg_1" class="selected" fill-opacity="1">
<path d="M1270,2900.07177734375 c-67,-26 -83,-112 -31,-164 c16,-16 34,-29 40,-29 c22,0 21,22 -3,51 c-53,62 -26,109 61,109 c49,0 59,-4 89,-34 c29,-29 34,-41 34,-80 c0,-90 -57,-153 -173,-192 c-71,-23 -179,-15 -282,24 c-65,24 -79,32 -77,48 c2,10 6,37 8,59 l5,40 l-23,-44 c-25,-48 -35,-56 -57,-42 c-11,7 -11,15 -1,44 c8,19 10,43 5,53 c-6,16 -9,15 -16,-12 c-12,-43 -31,-57 -53,-41 c-15,11 -16,17 -5,39 c6,15 8,35 5,45 c-6,15 -10,12 -22,-17 c-8,-19 -17,-36 -19,-38 c-2,-2 -42,19 -88,47 c-159,96 -210,115 -319,119 c-88,4 -101,2 -155,-22 c-72,-33 -98,-58 -129,-118 c-34,-67 -32,-118 6,-162 c72,-81 224,-76 300,10 c41,47 47,80 24,123 c-27,51 -88,72 -138,48 c-74,-35 -85,-107 -20,-133 c49,-20 63,-2 24,33 l-33,30 l21,21 c40,40 104,18 117,-40 c5,-21 0,-34 -27,-62 c-61,-65 -167,-73 -227,-17 c-42,39 -42,83 1,147 c47,70 117,104 215,104 c93,0 155,-21 293,-101 c104,-59 106,-60 102,-93 c-4,-34 11,-76 27,-76 c5,0 6,21 3,46 c-5,45 -4,46 17,35 c14,-8 21,-21 21,-42 c0,-33 15,-69 30,-69 c5,0 6,16 3,35 c-6,37 -2,41 27,25 c11,-6 16,-17 13,-28 c-3,-12 6,-30 22,-48 c20,-22 25,-24 20,-9 c-23,65 -24,65 67,31 c151,-57 318,-55 412,4 c45,29 106,101 106,127 c0,7 5,13 10,13 c6,0 10,-6 10,-13 c0,-26 61,-98 106,-127 c94,-59 261,-61 412,-4 c90,34 91,34 67,-31 c-8,-19 -7,-19 14,1 c12,11 23,33 25,48 c3,26 20,45 40,46 c5,0 6,-16 3,-35 c-3,-19 -3,-35 0,-35 c14,0 32,38 33,67 c0,23 6,36 21,44 c21,11 22,10 17,-35 c-3,-25 -2,-46 3,-46 c16,0 31,42 27,76 c-4,33 -2,34 102,93 c138,80 200,101 293,101 c60,0 83,-5 128,-27 c64,-33 119,-106 119,-158 c0,-43 -47,-92 -98,-101 c-85,-16 -185,42 -185,107 c0,61 71,91 115,47 l21,-21 l-33,-30 c-39,-35 -25,-53 24,-33 c65,26 54,98 -20,133 c-50,24 -111,3 -138,-48 c-23,-42 -17,-74 21,-120 c75,-88 231,-95 303,-13 c38,44 40,95 6,162 c-31,60 -57,85 -129,118 c-54,24 -67,26 -155,22 c-86,-3 -106,-7 -172,-39 c-41,-20 -110,-57 -154,-83 c-43,-26 -80,-45 -82,-43 c-2,1 -10,18 -17,37 c-13,30 -15,31 -21,12 c-4,-12 -2,-31 5,-43 c10,-19 9,-25 -6,-36 c-23,-16 -42,-2 -54,41 c-7,27 -10,28 -16,12 c-5,-10 -3,-34 5,-53 c10,-29 10,-37 -1,-44 c-22,-13 -32,-6 -54,37 c-20,38 -20,38 -23,12 c-2,-15 2,-37 8,-49 c15,-27 10,-32 -80,-64 c-99,-35 -209,-44 -277,-21 c-116,39 -173,102 -173,192 c0,39 5,51 34,80 c30,30 40,34 89,34 c88,0 111,-41 61,-107 c-30,-39 -22,-63 15,-44 c57,31 71,115 27,160 c-24,24 -34,26 -106,26 c-74,0 -81,-2 -110,-30 c-17,-16 -33,-40 -36,-52 c-8,-29 -20,-29 -28,0 c-3,12 -19,36 -36,52 c-27,26 -39,30 -98,32 c-37,1 -74,0 -82,-4 z" id="svg_2" fill="#b8b804" fill-opacity="1"/>
<path d="M436,2720.07177734375 c-11,-11 -6,-23 9,-23 c8,0 15,4 15,9 c0,13 -16,22 -24,14 z" id="svg_3" fill="#b8b804" fill-opacity="1"/>
<path d="M2546,2720.07177734375 c-11,-11 -6,-23 9,-23 c8,0 15,4 15,9 c0,13 -16,22 -24,14 z" id="svg_4" fill="#b8b804" fill-opacity="1"/>
<path d="M1314,2661.07177734375 c-33,-36 -75,-45 -115,-24 c-10,6 -19,8 -19,5 c0,-14 75,-36 106,-31 c41,8 84,42 84,67 c0,28 -21,22 -56,-17 z" id="svg_5" fill="#b8b804" fill-opacity="1"/>
<path d="M1630,2678.07177734375 c0,-25 43,-59 84,-67 c31,-5 106,17 106,31 c0,3 -9,1 -19,-5 c-40,-21 -82,-12 -117,25 c-37,39 -54,44 -54,16 z" id="svg_6" fill="#b8b804" fill-opacity="1"/>
<path d="M444,2666.07177734375 c-10,-17 13,-36 27,-22 c12,12 4,33 -11,33 c-5,0 -12,-5 -16,-11 z" id="svg_7" fill="#b8b804" fill-opacity="1"/>
<path d="M2522,2660.07177734375 c4,-21 33,-25 33,-3 c0,8 -8,16 -18,18 c-14,3 -18,-1 -15,-15 z" id="svg_8" fill="#b8b804" fill-opacity="1"/>
<path d="M424,2602.07177734375 c-4,-9 -2,-21 4,-27 c15,-15 44,-1 40,19 c-4,23 -36,29 -44,8 z" id="svg_9" fill="#b8b804" fill-opacity="1"/>
<path d="M2534,2602.07177734375 c-4,-9 -2,-21 4,-27 c15,-15 44,-1 40,19 c-4,23 -36,29 -44,8 z" id="svg_10" fill="#b8b804" fill-opacity="1"/>
<path d="M1490,2605.07177734375 c-1,-1 -2,-30 -4,-63 c-1,-33 -9,-83 -16,-111 c-17,-67 -10,-86 32,-82 c39,4 47,29 28,93 c-7,22 -14,67 -16,100 c-1,33 -8,61 -13,63 c-6,2 -11,2 -11,0 z" id="svg_11" fill="#b8b804" fill-opacity="1"/>
<path d="M357,2545.07177734375 c-7,-21 12,-48 33,-48 c21,0 40,27 33,48 c-3,6 -17,12 -33,12 c-16,0 -30,-6 -33,-12 z" id="svg_12" fill="#b8b804" fill-opacity="1"/>
<path d="M2576,2541.07177734375 c-8,-21 11,-44 35,-44 c20,0 39,28 32,48 c-7,18 -60,15 -67,-4 z" id="svg_13" fill="#b8b804" fill-opacity="1"/>
<path d="M1445,2524.07177734375 c-7,-16 -21,-23 -50,-27 c-35,-4 -40,-8 -40,-30 c0,-22 5,-25 37,-28 c40,-3 59,15 72,70 c8,33 -6,44 -19,15 z" id="svg_14" fill="#b8b804" fill-opacity="1"/>
<path d="M1537,2539.07177734375 c-9,-13 11,-78 28,-92 c7,-6 29,-10 47,-8 c28,2 33,7 33,28 c0,22 -5,26 -40,30 c-29,4 -43,11 -51,28 c-7,13 -14,20 -17,14 z" id="svg_15" fill="#b8b804" fill-opacity="1"/>
</g></g></svg>